<svg xmlns="http://www.w3.org/2000/svg" xmlns:xlink="http://www.w3.org/1999/xlink" width="40" zoomAndPan="magnify" viewBox="0 0 30 30.000001" height="40" preserveAspectRatio="xMidYMid meet" version="1.0"><defs><clipPath id="96ee072254"><path d="M 6.058594 2.902344 L 24 2.902344 L 24 26.128906 L 6.058594 26.128906 Z M 6.058594 2.902344 " clip-rule="nonzero"/></clipPath><clipPath id="beb744d9fa"><path d="M 8 2.902344 L 20 2.902344 L 20 23 L 8 23 Z M 8 2.902344 " clip-rule="nonzero"/></clipPath><clipPath id="d470d312bf"><path d="M 8 2.902344 L 21 2.902344 L 21 23 L 8 23 Z M 8 2.902344 " clip-rule="nonzero"/></clipPath><clipPath id="1130bf2e52"><path d="M 17 10 L 24.203125 10 L 24.203125 16 L 17 16 Z M 17 10 " clip-rule="nonzero"/></clipPath></defs><g clip-path="url(#96ee072254)"><path fill="#efbe75" d="M 18.253906 22.472656 L 16.347656 22.472656 L 16.347656 8.367188 C 16.347656 7.371094 15.722656 6.292969 14.804688 5.875 L 8.507812 2.992188 L 18.253906 2.992188 C 19.167969 2.992188 19.910156 3.738281 19.910156 4.652344 L 19.910156 11.511719 L 17.953125 11.511719 C 17.28125 11.511719 16.734375 12.058594 16.734375 12.734375 C 16.734375 13.40625 17.28125 13.953125 17.953125 13.953125 L 19.910156 13.953125 L 19.910156 20.816406 C 19.914062 21.730469 19.167969 22.472656 18.253906 22.472656 Z M 21.960938 15.015625 C 21.628906 15.015625 21.429688 14.621094 21.644531 14.351562 L 22.628906 13.140625 L 17.953125 13.140625 C 17.726562 13.140625 17.546875 12.957031 17.546875 12.734375 C 17.546875 12.507812 17.726562 12.324219 17.953125 12.324219 L 22.628906 12.324219 L 21.644531 11.113281 C 21.503906 10.9375 21.53125 10.683594 21.707031 10.539062 C 21.878906 10.398438 22.136719 10.425781 22.277344 10.601562 L 23.789062 12.472656 C 23.917969 12.621094 23.917969 12.835938 23.792969 12.992188 L 22.277344 14.863281 C 22.199219 14.964844 22.078125 15.015625 21.960938 15.015625 Z M 14.589844 26.125 C 14.441406 26.125 14.28125 26.089844 14.128906 26.019531 L 6.296875 22.4375 C 6.152344 22.371094 6.058594 22.226562 6.058594 22.066406 L 6.058594 3.398438 C 6.058594 3.105469 6.367188 2.90625 6.632812 3.03125 L 14.46875 6.613281 C 15.066406 6.886719 15.535156 7.65625 15.535156 8.367188 L 15.535156 25.023438 C 15.535156 25.640625 15.164062 26.125 14.589844 26.125 Z M 14.589844 26.125 " fill-opacity="1" fill-rule="evenodd"/></g><g clip-path="url(#beb744d9fa)"><path fill="#ed6b85" d="M 16.734375 12.734375 C 16.734375 12.058594 17.28125 11.511719 17.953125 11.511719 L 19.910156 11.511719 L 19.910156 4.652344 C 19.910156 3.738281 19.167969 2.992188 18.253906 2.992188 L 8.507812 2.992188 L 14.804688 5.875 C 15.722656 6.292969 16.347656 7.371094 16.347656 8.367188 L 16.347656 22.472656 L 18.253906 22.472656 C 19.167969 22.472656 19.914062 21.730469 19.910156 20.816406 L 19.910156 13.953125 L 17.953125 13.953125 C 17.28125 13.953125 16.734375 13.40625 16.734375 12.734375 Z M 16.734375 12.734375 " fill-opacity="1" fill-rule="evenodd"/></g><g clip-path="url(#d470d312bf)"><path stroke-linecap="butt" transform="matrix(0.00128071, 0, 0, 0.00128071, 1.418042, 1.004614)" fill="none" stroke-linejoin="miter" d="M 11959.22778 9158.77781 C 11959.22778 8631.117429 12386.236181 8204.109028 12910.846502 8204.109028 L 14438.926565 8204.109028 L 14438.926565 2848.203658 C 14438.926565 2134.489616 13859.415163 1551.928155 13145.701122 1551.928155 L 5535.801407 1551.928155 L 10452.498137 3802.87244 C 11169.262238 4129.22886 11657.271839 4971.045422 11657.271839 5748.810724 L 11657.271839 16762.577405 L 13145.701122 16762.577405 C 13859.415163 16762.577405 14441.976625 16183.066004 14438.926565 15469.351963 L 14438.926565 10110.396532 L 12910.846502 10110.396532 C 12386.236181 10110.396532 11959.22778 9683.388131 11959.22778 9158.77781 Z M 11959.22778 9158.77781 " stroke="#373435" stroke-width="17.639999" stroke-opacity="1" stroke-miterlimit="4"/></g><path fill="#ed6b85" d="M 22.628906 12.324219 L 17.953125 12.324219 C 17.726562 12.324219 17.546875 12.507812 17.546875 12.734375 C 17.546875 12.957031 17.726562 13.140625 17.953125 13.140625 L 22.628906 13.140625 L 21.644531 14.351562 C 21.429688 14.621094 21.628906 15.015625 21.960938 15.015625 C 22.078125 15.015625 22.199219 14.964844 22.277344 14.863281 L 23.792969 12.992188 C 23.917969 12.835938 23.917969 12.621094 23.789062 12.472656 L 22.277344 10.601562 C 22.136719 10.425781 21.878906 10.398438 21.707031 10.539062 C 21.53125 10.683594 21.503906 10.9375 21.644531 11.113281 Z M 22.628906 12.324219 " fill-opacity="1" fill-rule="evenodd"/><g clip-path="url(#1130bf2e52)"><path stroke-linecap="butt" transform="matrix(0.00128071, 0, 0, 0.00128071, 1.418042, 1.004614)" fill="none" stroke-linejoin="miter" d="M 16561.768329 8838.52151 L 12910.846502 8838.52151 C 12733.943021 8838.52151 12593.640261 8981.87433 12593.640261 9158.77781 C 12593.640261 9332.631231 12733.943021 9475.984051 12910.846502 9475.984051 L 16561.768329 9475.984051 L 15793.153207 10421.502653 C 15625.399907 10631.956793 15780.952967 10940.012854 16040.208068 10940.012854 C 16131.709868 10940.012854 16226.261728 10900.362074 16287.262928 10821.060514 L 17470.686211 9360.081771 C 17568.288131 9238.07937 17568.288131 9070.32607 17467.636151 8954.42379 L 16287.262928 7493.445047 C 16177.460768 7356.192347 15976.156808 7334.841927 15841.954167 7444.644087 C 15704.701467 7557.496307 15683.351047 7755.750208 15793.153207 7893.002908 Z M 16561.768329 8838.52151 " stroke="#373435" stroke-width="17.639999" stroke-opacity="1" stroke-miterlimit="4"/></g></svg>