<svg xmlns="http://www.w3.org/2000/svg" xmlns:xlink="http://www.w3.org/1999/xlink" width="40" zoomAndPan="magnify" viewBox="0 0 30 30.000001" height="40" preserveAspectRatio="xMidYMid meet" version="1.0"><defs><clipPath id="6d1cede25e"><path d="M 17 12 L 26.613281 12 L 26.613281 21 L 17 21 Z M 17 12 " clip-rule="nonzero"/></clipPath><clipPath id="ed06c18093"><path d="M 19 5.835938 L 25 5.835938 L 25 12 L 19 12 Z M 19 5.835938 " clip-rule="nonzero"/></clipPath><clipPath id="cae1f2895c"><path d="M 3.386719 12 L 13 12 L 13 21 L 3.386719 21 Z M 3.386719 12 " clip-rule="nonzero"/></clipPath><clipPath id="3a65048663"><path d="M 5 5.835938 L 11 5.835938 L 11 12 L 5 12 Z M 5 5.835938 " clip-rule="nonzero"/></clipPath></defs><path fill="#ffffff" d="M 16.207031 14.800781 L 13.792969 14.800781 C 11.90625 14.800781 10.378906 16.328125 10.378906 18.214844 L 10.378906 22.101562 C 13.359375 23.1875 16.632812 23.1875 19.617188 22.101562 L 19.617188 18.214844 C 19.621094 16.328125 18.09375 14.800781 16.207031 14.800781 Z M 16.207031 14.800781 " fill-opacity="1" fill-rule="nonzero"/><path fill="#ffffff" d="M 17.800781 10.882812 C 17.800781 11.253906 17.730469 11.609375 17.585938 11.953125 C 17.445312 12.296875 17.242188 12.601562 16.980469 12.863281 C 16.71875 13.125 16.414062 13.328125 16.070312 13.46875 C 15.726562 13.609375 15.371094 13.683594 15 13.683594 C 14.628906 13.683594 14.273438 13.609375 13.929688 13.46875 C 13.585938 13.328125 13.28125 13.125 13.019531 12.863281 C 12.757812 12.601562 12.554688 12.296875 12.414062 11.953125 C 12.269531 11.609375 12.199219 11.253906 12.199219 10.882812 C 12.199219 10.511719 12.269531 10.152344 12.414062 9.8125 C 12.554688 9.46875 12.757812 9.164062 13.019531 8.902344 C 13.28125 8.640625 13.585938 8.4375 13.929688 8.296875 C 14.273438 8.152344 14.628906 8.082031 15 8.082031 C 15.371094 8.082031 15.726562 8.152344 16.070312 8.296875 C 16.414062 8.4375 16.71875 8.640625 16.980469 8.902344 C 17.242188 9.164062 17.445312 9.46875 17.585938 9.8125 C 17.730469 10.152344 17.800781 10.511719 17.800781 10.882812 Z M 17.800781 10.882812 " fill-opacity="1" fill-rule="nonzero"/><g clip-path="url(#6d1cede25e)"><path fill="#ffffff" d="M 23.195312 12.554688 L 20.78125 12.554688 C 19.453125 12.554688 18.300781 13.316406 17.738281 14.425781 C 19.234375 15.035156 20.292969 16.5 20.292969 18.210938 L 20.292969 20.558594 C 22.410156 20.828125 24.578125 20.589844 26.609375 19.851562 L 26.609375 15.964844 C 26.609375 14.082031 25.082031 12.554688 23.195312 12.554688 Z M 23.195312 12.554688 " fill-opacity="1" fill-rule="nonzero"/></g><g clip-path="url(#ed06c18093)"><path fill="#ffffff" d="M 24.789062 8.636719 C 24.789062 9.007812 24.714844 9.363281 24.574219 9.707031 C 24.433594 10.050781 24.230469 10.351562 23.96875 10.613281 C 23.707031 10.878906 23.402344 11.078125 23.058594 11.222656 C 22.714844 11.363281 22.359375 11.433594 21.988281 11.433594 C 21.617188 11.433594 21.257812 11.363281 20.917969 11.222656 C 20.574219 11.078125 20.269531 10.878906 20.007812 10.613281 C 19.746094 10.351562 19.542969 10.050781 19.402344 9.707031 C 19.257812 9.363281 19.1875 9.007812 19.1875 8.636719 C 19.1875 8.265625 19.257812 7.90625 19.402344 7.5625 C 19.542969 7.222656 19.746094 6.917969 20.007812 6.65625 C 20.269531 6.394531 20.574219 6.191406 20.917969 6.046875 C 21.257812 5.90625 21.617188 5.835938 21.988281 5.835938 C 22.359375 5.835938 22.714844 5.90625 23.058594 6.046875 C 23.402344 6.191406 23.707031 6.394531 23.96875 6.65625 C 24.230469 6.917969 24.433594 7.222656 24.574219 7.5625 C 24.714844 7.90625 24.789062 8.265625 24.789062 8.636719 Z M 24.789062 8.636719 " fill-opacity="1" fill-rule="nonzero"/></g><g clip-path="url(#cae1f2895c)"><path fill="#ffffff" d="M 12.261719 14.429688 C 11.699219 13.320312 10.546875 12.558594 9.21875 12.558594 L 6.804688 12.558594 C 4.917969 12.554688 3.390625 14.082031 3.390625 15.964844 L 3.390625 19.851562 C 5.425781 20.597656 7.589844 20.828125 9.707031 20.558594 L 9.707031 18.210938 C 9.707031 16.5 10.765625 15.035156 12.261719 14.429688 Z M 12.261719 14.429688 " fill-opacity="1" fill-rule="nonzero"/></g><g clip-path="url(#3a65048663)"><path fill="#ffffff" d="M 10.8125 8.636719 C 10.8125 9.007812 10.742188 9.363281 10.597656 9.707031 C 10.457031 10.050781 10.253906 10.351562 9.992188 10.613281 C 9.730469 10.878906 9.425781 11.078125 9.082031 11.222656 C 8.742188 11.363281 8.382812 11.433594 8.011719 11.433594 C 7.640625 11.433594 7.285156 11.363281 6.941406 11.222656 C 6.597656 11.078125 6.292969 10.878906 6.03125 10.613281 C 5.769531 10.351562 5.566406 10.050781 5.425781 9.707031 C 5.285156 9.363281 5.210938 9.007812 5.210938 8.636719 C 5.210938 8.265625 5.285156 7.90625 5.425781 7.5625 C 5.566406 7.222656 5.769531 6.917969 6.03125 6.65625 C 6.292969 6.394531 6.597656 6.191406 6.941406 6.046875 C 7.285156 5.90625 7.640625 5.835938 8.011719 5.835938 C 8.382812 5.835938 8.742188 5.90625 9.082031 6.046875 C 9.425781 6.191406 9.730469 6.394531 9.992188 6.65625 C 10.253906 6.917969 10.457031 7.222656 10.597656 7.5625 C 10.742188 7.90625 10.8125 8.265625 10.8125 8.636719 Z M 10.8125 8.636719 " fill-opacity="1" fill-rule="nonzero"/></g></svg>