<svg xmlns="http://www.w3.org/2000/svg" xmlns:xlink="http://www.w3.org/1999/xlink" width="40" zoomAndPan="magnify" viewBox="0 0 30 30.000001" height="40" preserveAspectRatio="xMidYMid meet" version="1.0"><defs><clipPath id="e8bf7cb28f"><path d="M 3.386719 2.902344 L 26.597656 2.902344 L 26.597656 26.128906 L 3.386719 26.128906 Z M 3.386719 2.902344 " clip-rule="nonzero"/></clipPath></defs><g clip-path="url(#e8bf7cb28f)"><path fill="#ffffff" d="M 14.917969 10.097656 C 17.335938 10.054688 19.324219 11.976562 19.371094 14.390625 C 19.371094 14.433594 19.371094 14.476562 19.371094 14.519531 C 19.398438 16.933594 17.464844 18.914062 15.050781 18.9375 C 12.636719 18.964844 10.65625 17.03125 10.628906 14.617188 C 10.628906 14.585938 10.628906 14.550781 10.628906 14.519531 C 10.601562 12.117188 12.515625 10.144531 14.917969 10.097656 Z M 15.386719 2.914062 C 14.734375 2.890625 14.082031 2.925781 13.4375 3.011719 C 13.207031 3.042969 13.019531 3.203125 12.953125 3.421875 L 12.308594 5.515625 C 12.253906 5.691406 12.117188 5.835938 11.941406 5.898438 C 11.640625 6.007812 11.34375 6.128906 11.050781 6.265625 C 10.882812 6.347656 10.683594 6.34375 10.519531 6.257812 L 8.585938 5.230469 C 8.382812 5.121094 8.132812 5.140625 7.953125 5.28125 C 7.125 5.910156 6.386719 6.652344 5.753906 7.480469 C 5.613281 7.664062 5.59375 7.90625 5.699219 8.113281 L 6.730469 10.046875 C 6.816406 10.210938 6.828125 10.410156 6.75 10.578125 C 6.609375 10.867188 6.484375 11.164062 6.378906 11.46875 C 6.316406 11.644531 6.175781 11.78125 5.996094 11.835938 L 3.902344 12.480469 C 3.683594 12.546875 3.519531 12.738281 3.492188 12.964844 C 3.351562 13.996094 3.351562 15.039062 3.492188 16.074219 C 3.519531 16.300781 3.683594 16.488281 3.902344 16.554688 L 5.996094 17.199219 C 6.175781 17.253906 6.316406 17.390625 6.378906 17.566406 C 6.484375 17.871094 6.609375 18.167969 6.75 18.457031 C 6.828125 18.628906 6.816406 18.824219 6.730469 18.988281 L 5.699219 20.925781 C 5.59375 21.125 5.613281 21.375 5.753906 21.558594 C 6.386719 22.382812 7.125 23.121094 7.953125 23.753906 C 8.132812 23.894531 8.382812 23.914062 8.585938 23.808594 L 10.519531 22.78125 C 10.683594 22.691406 10.882812 22.6875 11.050781 22.769531 C 11.34375 22.90625 11.640625 23.03125 11.941406 23.136719 C 12.117188 23.199219 12.253906 23.339844 12.308594 23.519531 L 12.953125 25.613281 C 13.019531 25.835938 13.207031 25.996094 13.4375 26.023438 C 14.46875 26.164062 15.511719 26.164062 16.542969 26.023438 C 16.769531 25.996094 16.960938 25.835938 17.027344 25.613281 L 17.671875 23.519531 C 17.726562 23.339844 17.863281 23.199219 18.039062 23.136719 C 18.34375 23.03125 18.640625 22.90625 18.929688 22.769531 C 19.097656 22.6875 19.296875 22.691406 19.460938 22.78125 L 21.394531 23.808594 C 21.601562 23.914062 21.847656 23.894531 22.027344 23.753906 C 22.859375 23.121094 23.597656 22.382812 24.226562 21.558594 C 24.367188 21.375 24.386719 21.125 24.28125 20.925781 L 23.253906 18.988281 C 23.164062 18.824219 23.15625 18.628906 23.234375 18.457031 C 23.371094 18.167969 23.496094 17.871094 23.601562 17.566406 C 23.664062 17.390625 23.804688 17.253906 23.984375 17.199219 L 26.082031 16.554688 C 26.300781 16.488281 26.460938 16.300781 26.492188 16.074219 C 26.628906 15.039062 26.628906 13.996094 26.492188 12.964844 C 26.460938 12.738281 26.300781 12.546875 26.082031 12.480469 L 23.984375 11.835938 C 23.804688 11.78125 23.664062 11.644531 23.601562 11.46875 C 23.496094 11.164062 23.371094 10.867188 23.234375 10.578125 C 23.15625 10.410156 23.164062 10.210938 23.253906 10.046875 L 24.28125 8.113281 C 24.386719 7.90625 24.367188 7.664062 24.226562 7.480469 C 23.597656 6.652344 22.859375 5.910156 22.027344 5.28125 C 21.847656 5.140625 21.601562 5.121094 21.394531 5.230469 L 19.460938 6.257812 C 19.296875 6.34375 19.097656 6.347656 18.929688 6.269531 C 18.640625 6.128906 18.34375 6.007812 18.039062 5.898438 C 17.863281 5.835938 17.726562 5.695312 17.671875 5.515625 L 17.027344 3.421875 C 16.960938 3.203125 16.769531 3.042969 16.542969 3.011719 C 16.160156 2.957031 15.773438 2.925781 15.386719 2.914062 " fill-opacity="1" fill-rule="nonzero"/></g></svg>