<svg xmlns="http://www.w3.org/2000/svg" xmlns:xlink="http://www.w3.org/1999/xlink" width="40" zoomAndPan="magnify" viewBox="0 0 30 30.000001" height="40" preserveAspectRatio="xMidYMid meet" version="1.0"><defs><clipPath id="a9fcc65a78"><path d="M 3.386719 3 L 26.613281 3 L 26.613281 26.195312 L 3.386719 26.195312 Z M 3.386719 3 " clip-rule="nonzero"/></clipPath></defs><path fill="#71b3c4" d="M 6.1875 8.222656 C 6.1875 7.75 6.1875 7.269531 6.1875 6.804688 C 6.203125 6.144531 6.597656 5.679688 7.253906 5.664062 C 8.308594 5.625 9.367188 5.628906 10.421875 5.664062 C 11.054688 5.683594 11.453125 6.074219 11.488281 6.753906 C 11.539062 7.742188 11.539062 8.730469 11.488281 9.71875 C 11.453125 10.460938 11.054688 10.914062 10.375 10.945312 C 9.277344 10.992188 8.171875 11.085938 7.082031 10.855469 C 6.484375 10.730469 6.226562 10.457031 6.195312 9.851562 C 6.167969 9.3125 6.195312 8.773438 6.195312 8.234375 Z M 21.351562 5.636719 C 20.949219 5.636719 20.539062 5.664062 20.140625 5.636719 C 19.238281 5.558594 18.726562 6.058594 18.746094 7.011719 C 18.773438 7.882812 18.847656 8.765625 18.664062 9.636719 C 18.65625 9.75 18.667969 9.859375 18.707031 9.964844 C 18.863281 10.589844 19.308594 10.9375 20.058594 10.960938 C 20.910156 10.984375 21.769531 10.960938 22.621094 10.960938 C 22.78125 10.957031 22.933594 10.929688 23.085938 10.886719 C 23.691406 10.722656 23.882812 10.46875 23.964844 9.855469 C 24.035156 9.339844 23.964844 8.820312 24.015625 8.316406 C 24.082031 7.761719 24.066406 7.203125 23.964844 6.652344 C 23.847656 5.988281 23.519531 5.667969 22.835938 5.644531 C 22.34375 5.628906 21.847656 5.644531 21.351562 5.644531 Z M 8.832031 18.355469 L 7.335938 18.355469 C 6.515625 18.367188 6.203125 18.664062 6.191406 19.496094 C 6.179688 20.449219 6.179688 21.398438 6.191406 22.335938 C 6.203125 23.140625 6.597656 23.527344 7.40625 23.535156 C 8.355469 23.535156 9.308594 23.535156 10.246094 23.535156 C 11.078125 23.535156 11.5 23.132812 11.515625 22.308594 C 11.53125 21.484375 11.515625 20.640625 11.515625 19.804688 C 11.507812 19.601562 11.476562 19.402344 11.414062 19.207031 C 11.234375 18.578125 10.976562 18.363281 10.308594 18.347656 C 9.816406 18.335938 9.316406 18.347656 8.824219 18.347656 Z M 21.546875 18.355469 C 20.976562 18.355469 20.417969 18.34375 19.855469 18.355469 C 19.34375 18.371094 19.070312 18.566406 18.9375 18.996094 C 18.875 19.210938 18.773438 19.457031 18.820312 19.65625 C 18.984375 20.359375 18.804688 21.042969 18.777344 21.734375 C 18.761719 22.003906 18.769531 22.273438 18.808594 22.542969 C 18.9375 23.304688 19.207031 23.535156 19.996094 23.542969 C 20.917969 23.554688 21.839844 23.554688 22.761719 23.542969 C 23.65625 23.535156 24.0625 23.171875 24.09375 22.289062 C 24.128906 21.367188 24.109375 20.445312 24.09375 19.523438 C 24.085938 19.339844 24.050781 19.164062 23.992188 18.996094 C 23.84375 18.519531 23.667969 18.375 23.167969 18.359375 C 22.628906 18.339844 22.085938 18.359375 21.546875 18.359375 Z M 21.546875 18.355469 " fill-opacity="1" fill-rule="nonzero"/><g clip-path="url(#a9fcc65a78)"><path fill="#7ed957" d="M 6.859375 17.054688 C 6.160156 17.054688 5.460938 17.066406 4.765625 17.054688 C 3.882812 17.035156 3.527344 16.625 3.582031 15.722656 C 3.652344 14.933594 3.632812 14.144531 3.527344 13.359375 C 3.386719 12.539062 3.90625 11.925781 4.699219 11.90625 C 6 11.878906 7.304688 11.90625 8.605469 11.84375 C 8.933594 11.832031 9.257812 11.878906 9.570312 11.980469 C 9.882812 12.082031 10.171875 12.234375 10.433594 12.433594 C 10.691406 12.636719 10.910156 12.878906 11.089844 13.15625 C 11.265625 13.4375 11.386719 13.738281 11.457031 14.058594 C 11.671875 14.941406 11.25 15.742188 10.585938 16.34375 C 10.039062 16.882812 9.382812 17.117188 8.617188 17.054688 C 8.035156 17.007812 7.449219 17.054688 6.859375 17.054688 Z M 17.742188 21.175781 C 17.785156 20.332031 17.46875 19.679688 16.878906 19.085938 C 16.558594 18.734375 16.167969 18.5 15.707031 18.386719 C 15.25 18.273438 14.796875 18.296875 14.347656 18.457031 C 13.882812 18.601562 13.492188 18.855469 13.167969 19.222656 C 12.847656 19.589844 12.644531 20.011719 12.5625 20.492188 C 12.445312 21.066406 12.410156 21.644531 12.457031 22.226562 C 12.554688 23.175781 12.523438 24.109375 12.550781 25.050781 C 12.578125 25.894531 12.789062 26.113281 13.660156 26.121094 C 14.625 26.121094 15.589844 26.121094 16.558594 26.121094 C 17.4375 26.121094 17.730469 25.832031 17.746094 24.953125 C 17.757812 24.277344 17.746094 23.605469 17.746094 22.929688 C 17.738281 22.347656 17.71875 21.761719 17.742188 21.175781 Z M 17.742188 4.242188 C 17.726562 3.367188 17.253906 2.964844 16.382812 3.125 C 15.625 3.226562 14.863281 3.246094 14.101562 3.179688 C 13.832031 3.164062 13.5625 3.171875 13.292969 3.207031 C 12.828125 3.277344 12.597656 3.445312 12.574219 3.875 C 12.519531 4.886719 12.5 5.894531 12.503906 6.90625 C 12.519531 7.242188 12.507812 7.578125 12.472656 7.910156 C 12.234375 9.535156 13.757812 10.832031 14.917969 10.957031 C 15.007812 10.964844 15.097656 10.964844 15.1875 10.957031 C 16.566406 10.777344 17.734375 9.8125 17.738281 8.21875 C 17.738281 7.589844 17.738281 6.957031 17.738281 6.328125 C 17.738281 5.636719 17.746094 4.9375 17.734375 4.238281 Z M 25.570312 17.058594 C 26.332031 17.058594 26.652344 16.753906 26.664062 16.007812 C 26.683594 14.972656 26.6875 13.9375 26.664062 12.902344 C 26.648438 12.175781 26.238281 11.839844 25.523438 11.9375 C 25.257812 11.992188 24.988281 12.007812 24.71875 11.976562 C 23.601562 11.769531 22.472656 11.871094 21.351562 11.878906 C 21.019531 11.878906 20.703125 11.945312 20.398438 12.070312 C 20.09375 12.199219 19.820312 12.378906 19.585938 12.613281 C 19.355469 12.847656 19.171875 13.117188 19.042969 13.421875 C 18.914062 13.726562 18.851562 14.042969 18.847656 14.375 C 18.859375 15.882812 19.945312 17.039062 21.378906 17.054688 C 22.054688 17.054688 22.730469 17.054688 23.402344 17.054688 C 24.125 17.058594 24.84375 17.0625 25.5625 17.054688 Z M 16.546875 17.058594 C 17.425781 17.058594 17.730469 16.757812 17.742188 15.898438 C 17.753906 14.945312 17.742188 14.007812 17.742188 13.066406 C 17.742188 12.199219 17.425781 11.882812 16.570312 11.871094 C 15.617188 11.859375 14.683594 11.871094 13.738281 11.871094 C 12.921875 11.871094 12.707031 12.097656 12.523438 12.914062 C 12.398438 13.484375 12.59375 14.027344 12.554688 14.589844 C 12.53125 15.058594 12.53125 15.53125 12.554688 16 C 12.589844 16.75 12.90625 17.050781 13.648438 17.0625 C 14.140625 17.0625 14.636719 17.0625 15.128906 17.0625 C 15.621094 17.0625 16.0625 17.0625 16.539062 17.054688 Z M 16.546875 17.058594 " fill-opacity="1" fill-rule="nonzero"/></g></svg>