<svg xmlns="http://www.w3.org/2000/svg" xmlns:xlink="http://www.w3.org/1999/xlink" width="40" zoomAndPan="magnify" viewBox="0 0 30 30.000001" height="40" preserveAspectRatio="xMidYMid meet" version="1.0"><defs><clipPath id="9162527dbf"><path d="M 3.460938 2.902344 L 26.6875 2.902344 L 26.6875 26.128906 L 3.460938 26.128906 Z M 3.460938 2.902344 " clip-rule="nonzero"/></clipPath></defs><path fill="#ffffff" d="M 7.140625 16.347656 L 8.976562 16.347656 C 9.230469 16.347656 9.433594 16.140625 9.433594 15.886719 L 9.433594 14.050781 C 9.433594 13.796875 9.230469 13.59375 8.976562 13.59375 L 7.140625 13.59375 C 6.886719 13.59375 6.679688 13.796875 6.679688 14.050781 L 6.679688 15.886719 C 6.679688 16.140625 6.886719 16.347656 7.140625 16.347656 Z M 7.140625 16.347656 " fill-opacity="1" fill-rule="nonzero"/><path fill="#ffffff" d="M 7.140625 20.140625 L 8.976562 20.140625 C 9.230469 20.140625 9.433594 19.933594 9.433594 19.679688 L 9.433594 17.84375 C 9.433594 17.589844 9.230469 17.382812 8.976562 17.382812 L 7.140625 17.382812 C 6.886719 17.382812 6.679688 17.589844 6.679688 17.84375 L 6.679688 19.679688 C 6.679688 19.933594 6.886719 20.140625 7.140625 20.140625 Z M 7.140625 20.140625 " fill-opacity="1" fill-rule="nonzero"/><path fill="#ffffff" d="M 7.140625 23.933594 L 8.976562 23.933594 C 9.230469 23.933594 9.433594 23.726562 9.433594 23.472656 L 9.433594 21.636719 C 9.433594 21.382812 9.230469 21.175781 8.976562 21.175781 L 7.140625 21.175781 C 6.886719 21.175781 6.679688 21.382812 6.679688 21.636719 L 6.679688 23.472656 C 6.679688 23.726562 6.886719 23.933594 7.140625 23.933594 Z M 7.140625 23.933594 " fill-opacity="1" fill-rule="nonzero"/><path fill="#ffffff" d="M 11.765625 16.347656 L 13.601562 16.347656 C 13.855469 16.347656 14.0625 16.140625 14.0625 15.886719 L 14.0625 14.050781 C 14.0625 13.796875 13.855469 13.59375 13.601562 13.59375 L 11.765625 13.59375 C 11.511719 13.59375 11.304688 13.796875 11.304688 14.050781 L 11.304688 15.886719 C 11.304688 16.140625 11.511719 16.347656 11.765625 16.347656 Z M 11.765625 16.347656 " fill-opacity="1" fill-rule="nonzero"/><path fill="#ffffff" d="M 11.765625 20.140625 L 13.601562 20.140625 C 13.855469 20.140625 14.0625 19.933594 14.0625 19.679688 L 14.0625 17.84375 C 14.0625 17.589844 13.855469 17.382812 13.601562 17.382812 L 11.765625 17.382812 C 11.511719 17.382812 11.304688 17.589844 11.304688 17.84375 L 11.304688 19.679688 C 11.304688 19.933594 11.511719 20.140625 11.765625 20.140625 Z M 11.765625 20.140625 " fill-opacity="1" fill-rule="nonzero"/><path fill="#ffffff" d="M 11.765625 23.933594 L 13.601562 23.933594 C 13.855469 23.933594 14.0625 23.726562 14.0625 23.472656 L 14.0625 21.636719 C 14.0625 21.382812 13.855469 21.175781 13.601562 21.175781 L 11.765625 21.175781 C 11.511719 21.175781 11.304688 21.382812 11.304688 21.636719 L 11.304688 23.472656 C 11.304688 23.726562 11.511719 23.933594 11.765625 23.933594 Z M 11.765625 23.933594 " fill-opacity="1" fill-rule="nonzero"/><path fill="#ffffff" d="M 16.390625 16.347656 L 18.226562 16.347656 C 18.480469 16.347656 18.6875 16.140625 18.6875 15.886719 L 18.6875 14.050781 C 18.6875 13.796875 18.480469 13.59375 18.226562 13.59375 L 16.390625 13.59375 C 16.136719 13.59375 15.929688 13.796875 15.929688 14.050781 L 15.929688 15.886719 C 15.929688 16.140625 16.136719 16.347656 16.390625 16.347656 Z M 16.390625 16.347656 " fill-opacity="1" fill-rule="nonzero"/><path fill="#ffffff" d="M 18.226562 21.175781 L 16.390625 21.175781 C 16.136719 21.175781 15.929688 21.382812 15.929688 21.636719 L 15.929688 23.472656 C 15.929688 23.726562 16.136719 23.933594 16.390625 23.933594 L 18.226562 23.933594 C 18.480469 23.933594 18.6875 23.726562 18.6875 23.472656 L 18.6875 21.636719 C 18.6875 21.382812 18.480469 21.175781 18.226562 21.175781 Z M 18.226562 21.175781 " fill-opacity="1" fill-rule="nonzero"/><path fill="#ffffff" d="M 21.019531 16.347656 L 22.851562 16.347656 C 23.105469 16.347656 23.3125 16.140625 23.3125 15.886719 L 23.3125 14.050781 C 23.3125 13.796875 23.105469 13.59375 22.851562 13.59375 L 21.019531 13.59375 C 20.761719 13.59375 20.558594 13.796875 20.558594 14.050781 L 20.558594 15.886719 C 20.558594 16.140625 20.761719 16.347656 21.019531 16.347656 Z M 21.019531 16.347656 " fill-opacity="1" fill-rule="nonzero"/><path fill="#ffffff" d="M 21.019531 20.140625 L 22.851562 20.140625 C 23.105469 20.140625 23.3125 19.933594 23.3125 19.679688 L 23.3125 17.84375 C 23.3125 17.589844 23.105469 17.382812 22.851562 17.382812 L 21.019531 17.382812 C 20.761719 17.382812 20.558594 17.589844 20.558594 17.84375 L 20.558594 19.679688 C 20.558594 19.933594 20.761719 20.140625 21.019531 20.140625 Z M 21.019531 20.140625 " fill-opacity="1" fill-rule="nonzero"/><g clip-path="url(#9162527dbf)"><path fill="#ffffff" d="M 21.117188 2.910156 C 20.6875 2.910156 20.335938 3.257812 20.335938 3.691406 L 20.335938 5.261719 L 9.695312 5.261719 L 9.695312 3.691406 C 9.695312 3.257812 9.34375 2.910156 8.914062 2.910156 C 8.480469 2.910156 8.132812 3.257812 8.132812 3.691406 L 8.132812 5.261719 L 5.664062 5.261719 C 4.449219 5.261719 3.460938 6.25 3.460938 7.464844 L 3.460938 23.921875 C 3.460938 25.136719 4.449219 26.125 5.664062 26.125 L 24.328125 26.125 C 25.542969 26.125 26.53125 25.136719 26.53125 23.921875 L 26.53125 7.464844 C 26.53125 6.25 25.542969 5.261719 24.328125 5.261719 L 21.902344 5.261719 L 21.902344 3.691406 C 21.902344 3.257812 21.550781 2.910156 21.117188 2.910156 Z M 8.132812 6.386719 L 8.132812 7.355469 C 8.132812 7.789062 8.480469 8.136719 8.914062 8.136719 C 9.34375 8.136719 9.695312 7.789062 9.695312 7.355469 L 9.695312 6.386719 C 9.980469 6.613281 10.160156 6.964844 10.160156 7.355469 C 10.160156 8.046875 9.601562 8.605469 8.914062 8.605469 C 8.226562 8.605469 7.667969 8.046875 7.667969 7.355469 C 7.667969 6.964844 7.847656 6.613281 8.132812 6.386719 Z M 25.445312 23.921875 C 25.445312 24.539062 24.941406 25.039062 24.328125 25.039062 L 5.664062 25.039062 C 5.050781 25.039062 4.546875 24.539062 4.546875 23.921875 L 4.546875 12.484375 L 25.445312 12.484375 Z M 22.367188 7.355469 C 22.367188 8.046875 21.808594 8.605469 21.117188 8.605469 C 20.429688 8.605469 19.871094 8.046875 19.871094 7.355469 C 19.871094 6.964844 20.054688 6.613281 20.335938 6.386719 L 20.335938 7.355469 C 20.335938 7.789062 20.6875 8.136719 21.117188 8.136719 C 21.550781 8.136719 21.902344 7.789062 21.902344 7.355469 L 21.902344 6.386719 C 22.183594 6.613281 22.367188 6.964844 22.367188 7.355469 Z M 22.367188 7.355469 " fill-opacity="1" fill-rule="nonzero"/></g><path fill="#ffffff" d="M 17.164062 20.382812 L 19.351562 18.195312 C 19.5625 17.984375 19.5625 17.640625 19.351562 17.429688 C 19.136719 17.21875 18.792969 17.21875 18.582031 17.429688 L 17.164062 18.847656 L 16.59375 18.277344 C 16.382812 18.066406 16.039062 18.066406 15.828125 18.277344 C 15.613281 18.492188 15.613281 18.832031 15.828125 19.046875 Z M 17.164062 20.382812 " fill-opacity="1" fill-rule="nonzero"/></svg>