<svg xmlns="http://www.w3.org/2000/svg" xmlns:xlink="http://www.w3.org/1999/xlink" width="40" zoomAndPan="magnify" viewBox="0 0 30 30.000001" height="40" preserveAspectRatio="xMidYMid meet" version="1.0"><defs><clipPath id="e57a195658"><path d="M 0.484375 0 L 29.515625 0 L 29.515625 29.03125 L 0.484375 29.03125 Z M 0.484375 0 " clip-rule="nonzero"/></clipPath><clipPath id="22b2f39c58"><path d="M 3.386719 6.953125 L 26.613281 6.953125 L 26.613281 22.195312 L 3.386719 22.195312 Z M 3.386719 6.953125 " clip-rule="nonzero"/></clipPath></defs><g clip-path="url(#e57a195658)"><path fill="#ffffff" d="M 0.484375 0 L 29.515625 0 L 29.515625 29.03125 L 0.484375 29.03125 Z M 0.484375 0 " fill-opacity="1" fill-rule="nonzero"/><path fill="#ffffff" d="M 0.484375 0 L 29.515625 0 L 29.515625 29.03125 L 0.484375 29.03125 Z M 0.484375 0 " fill-opacity="1" fill-rule="nonzero"/></g><g clip-path="url(#22b2f39c58)"><path fill="#4e96a8" d="M 26.257812 13.636719 C 25.015625 11.644531 21.402344 6.953125 15 6.953125 C 8.597656 6.953125 4.984375 11.644531 3.742188 13.636719 C 3.40625 14.171875 3.40625 14.851562 3.742188 15.386719 C 4.984375 17.378906 8.597656 22.070312 15 22.070312 C 21.402344 22.070312 25.015625 17.378906 26.257812 15.386719 C 26.59375 14.851562 26.59375 14.171875 26.257812 13.636719 Z M 15 19.445312 C 12.277344 19.445312 10.066406 17.234375 10.066406 14.511719 C 10.066406 11.789062 12.277344 9.578125 15 9.578125 C 17.726562 9.578125 19.933594 11.789062 19.933594 14.511719 C 19.933594 17.234375 17.726562 19.445312 15 19.445312 Z M 16.644531 13.691406 C 16.191406 13.691406 15.824219 13.320312 15.824219 12.867188 C 15.824219 12.644531 15.914062 12.441406 16.058594 12.292969 C 15.738281 12.140625 15.382812 12.046875 15 12.046875 C 13.636719 12.046875 12.535156 13.148438 12.535156 14.511719 C 12.535156 15.875 13.636719 16.976562 15 16.976562 C 16.363281 16.976562 17.46875 15.875 17.46875 14.511719 C 17.46875 14.132812 17.375 13.773438 17.21875 13.453125 C 17.070312 13.597656 16.867188 13.691406 16.644531 13.691406 Z M 16.644531 13.691406 " fill-opacity="1" fill-rule="nonzero"/></g></svg>