<svg xmlns="http://www.w3.org/2000/svg" xmlns:xlink="http://www.w3.org/1999/xlink" width="40" zoomAndPan="magnify" viewBox="0 0 30 30.000001" height="40" preserveAspectRatio="xMidYMid meet" version="1.0"><defs><clipPath id="32c13bbacd"><path d="M 6 4 L 26.613281 4 L 26.613281 26.128906 L 6 26.128906 Z M 6 4 " clip-rule="nonzero"/></clipPath><clipPath id="b202f0ecff"><path d="M 6.128906 4.746094 L 26.539062 4.746094 L 26.539062 26.128906 L 6.128906 26.128906 Z M 6.128906 4.746094 " clip-rule="nonzero"/></clipPath><clipPath id="b976bf3881"><path d="M 3.386719 17 L 9 17 L 9 23 L 3.386719 23 Z M 3.386719 17 " clip-rule="nonzero"/></clipPath></defs><g clip-path="url(#32c13bbacd)"><path fill="#f7c340" d="M 18.589844 26.046875 C 17.648438 26.046875 16.804688 25.796875 16 25.28125 C 15.101562 24.707031 14.292969 23.988281 13.511719 23.292969 C 13.371094 23.171875 13.234375 23.050781 13.09375 22.925781 C 12.703125 22.582031 12.300781 22.230469 11.910156 21.890625 C 10.539062 20.695312 9.117188 19.453125 7.78125 18.167969 C 7.488281 17.886719 7.289062 17.636719 7.128906 17.363281 C 6.65625 16.535156 6.671875 16.210938 7.214844 15.699219 C 7.355469 15.5625 7.613281 15.488281 7.921875 15.488281 C 8.269531 15.488281 8.621094 15.585938 8.882812 15.757812 C 9.320312 16.046875 10.15625 16.800781 10.96875 17.53125 C 11.605469 18.101562 12.203125 18.644531 12.628906 18.980469 C 12.667969 19.011719 12.714844 19.027344 12.757812 19.027344 C 12.835938 19.027344 12.910156 18.980469 12.945312 18.90625 C 12.980469 18.835938 12.972656 18.757812 12.921875 18.695312 C 12.28125 17.878906 10.699219 16.265625 9.949219 15.523438 C 9.605469 15.183594 9.253906 14.835938 8.910156 14.5 C 8.292969 13.894531 7.652344 13.265625 7.03125 12.636719 C 6.5625 12.160156 6.078125 11.585938 6.316406 10.855469 C 6.5 10.308594 6.898438 10.007812 7.449219 10.007812 C 7.859375 10.007812 8.304688 10.183594 8.675781 10.488281 C 9.375 11.066406 10.011719 11.742188 10.628906 12.398438 C 10.855469 12.644531 11.09375 12.894531 11.328125 13.140625 C 11.472656 13.289062 11.660156 13.484375 11.875 13.714844 C 12.566406 14.453125 13.515625 15.460938 14.082031 15.90625 C 14.125 15.9375 14.171875 15.953125 14.222656 15.953125 C 14.304688 15.953125 14.382812 15.90625 14.421875 15.835938 C 14.464844 15.761719 14.460938 15.675781 14.414062 15.605469 C 14.195312 15.265625 13.886719 14.933594 13.613281 14.636719 C 13.460938 14.476562 13.316406 14.320312 13.203125 14.183594 C 12.722656 13.589844 12.207031 13.011719 11.707031 12.457031 C 11.261719 11.960938 10.804688 11.449219 10.371094 10.929688 C 10.1875 10.703125 9.917969 10.417969 9.609375 10.089844 C 8.878906 9.308594 7.96875 8.335938 7.703125 7.691406 C 7.476562 7.140625 7.636719 6.566406 8.117188 6.234375 C 8.359375 6.0625 8.617188 5.976562 8.882812 5.976562 C 9.179688 5.976562 9.480469 6.082031 9.773438 6.285156 C 10.242188 6.605469 10.605469 7.046875 10.957031 7.472656 C 11.070312 7.613281 11.191406 7.753906 11.3125 7.894531 C 12.558594 9.316406 15.054688 12.117188 16.007812 13.167969 C 16.042969 13.207031 16.089844 13.230469 16.140625 13.230469 C 16.207031 13.230469 16.269531 13.191406 16.300781 13.136719 C 16.332031 13.078125 16.332031 13.011719 16.296875 12.957031 C 15.839844 12.21875 14.75 10.71875 13.144531 8.617188 C 13.070312 8.523438 12.996094 8.425781 12.921875 8.328125 C 12.460938 7.730469 11.9375 7.050781 11.660156 6.527344 C 11.519531 6.25 11.519531 5.949219 11.660156 5.632812 C 11.839844 5.234375 12.21875 4.941406 12.644531 4.863281 C 12.714844 4.851562 12.785156 4.84375 12.855469 4.84375 C 13.105469 4.84375 13.355469 4.925781 13.59375 5.089844 C 13.953125 5.335938 14.566406 6.113281 15.214844 6.933594 C 15.652344 7.488281 16.101562 8.058594 16.519531 8.523438 C 16.757812 8.789062 17.304688 9.496094 17.882812 10.246094 C 18.632812 11.21875 19.484375 12.320312 19.863281 12.714844 C 20.171875 13.039062 20.507812 13.203125 20.863281 13.203125 C 21.011719 13.203125 21.160156 13.171875 21.3125 13.121094 C 21.835938 12.933594 22.121094 12.507812 22.113281 11.921875 C 22.097656 10.753906 22.425781 9.820312 23.117188 9.066406 C 23.492188 8.652344 24.421875 8.316406 25.1875 8.316406 C 25.476562 8.316406 25.71875 8.367188 25.886719 8.457031 C 26.4375 8.757812 26.605469 9.3125 26.316406 9.898438 C 26.234375 10.070312 26.144531 10.246094 26.058594 10.414062 C 25.628906 11.265625 25.183594 12.140625 25.089844 13.164062 C 25.039062 13.734375 25.117188 14.285156 25.191406 14.820312 C 25.21875 15.011719 25.25 15.214844 25.269531 15.410156 C 25.316406 15.847656 25.386719 16.289062 25.457031 16.71875 C 25.621094 17.742188 25.792969 18.804688 25.648438 19.847656 L 25.644531 19.851562 L 25.644531 19.855469 C 25.5625 21.59375 24.554688 22.925781 23.722656 23.738281 C 22.742188 24.691406 21.453125 25.464844 20.269531 25.796875 C 19.683594 25.960938 19.117188 26.046875 18.589844 26.046875 " fill-opacity="1" fill-rule="nonzero"/></g><g clip-path="url(#b202f0ecff)"><path fill="#c08625" d="M 12.855469 4.761719 C 12.78125 4.761719 12.707031 4.765625 12.628906 4.78125 C 12.171875 4.863281 11.777344 5.175781 11.582031 5.597656 C 11.457031 5.875 11.40625 6.21875 11.585938 6.566406 C 11.914062 7.183594 12.570312 8.003906 13.074219 8.667969 C 13.882812 9.722656 15.585938 11.964844 16.222656 13 C 16.269531 13.074219 16.207031 13.144531 16.140625 13.144531 C 16.117188 13.144531 16.089844 13.136719 16.070312 13.113281 C 15.121094 12.066406 12.613281 9.25 11.375 7.839844 C 10.882812 7.277344 10.453125 6.652344 9.820312 6.214844 C 9.511719 6.003906 9.195312 5.894531 8.882812 5.894531 C 8.601562 5.894531 8.328125 5.984375 8.066406 6.164062 C 7.589844 6.496094 7.363281 7.09375 7.625 7.722656 C 8.007812 8.652344 9.675781 10.21875 10.304688 10.980469 C 11.226562 12.089844 12.234375 13.121094 13.136719 14.234375 C 13.457031 14.628906 14.011719 15.132812 14.34375 15.652344 C 14.410156 15.753906 14.324219 15.871094 14.222656 15.871094 C 14.195312 15.871094 14.164062 15.859375 14.136719 15.839844 C 13.398438 15.261719 12 13.710938 11.390625 13.082031 C 10.515625 12.183594 9.695312 11.21875 8.730469 10.425781 C 8.34375 10.105469 7.878906 9.925781 7.449219 9.925781 C 6.921875 9.925781 6.445312 10.199219 6.238281 10.828125 C 5.984375 11.601562 6.476562 12.195312 6.972656 12.695312 C 7.933594 13.671875 8.921875 14.621094 9.890625 15.582031 C 10.644531 16.328125 12.214844 17.933594 12.855469 18.746094 C 12.925781 18.832031 12.847656 18.941406 12.757812 18.941406 C 12.734375 18.941406 12.707031 18.933594 12.683594 18.914062 C 11.703125 18.140625 9.707031 16.199219 8.929688 15.6875 C 8.640625 15.496094 8.261719 15.402344 7.921875 15.402344 C 7.605469 15.402344 7.320312 15.480469 7.15625 15.636719 C 6.570312 16.1875 6.566406 16.554688 7.058594 17.40625 C 7.238281 17.722656 7.46875 17.984375 7.722656 18.230469 C 9.4375 19.878906 11.253906 21.417969 13.039062 22.988281 C 13.980469 23.816406 14.894531 24.671875 15.957031 25.351562 C 16.800781 25.890625 17.679688 26.128906 18.589844 26.128906 C 19.144531 26.128906 19.714844 26.039062 20.292969 25.878906 C 22.496094 25.253906 25.582031 22.960938 25.730469 19.859375 C 25.9375 18.363281 25.515625 16.886719 25.355469 15.402344 C 25.273438 14.664062 25.105469 13.941406 25.175781 13.171875 C 25.28125 11.964844 25.886719 10.976562 26.394531 9.933594 C 26.695312 9.3125 26.519531 8.707031 25.925781 8.382812 C 25.734375 8.28125 25.476562 8.234375 25.1875 8.234375 C 24.425781 8.234375 23.464844 8.558594 23.054688 9.007812 C 22.289062 9.847656 22.015625 10.828125 22.027344 11.921875 C 22.035156 12.457031 21.785156 12.863281 21.285156 13.039062 C 21.140625 13.09375 21 13.117188 20.863281 13.117188 C 20.515625 13.117188 20.203125 12.953125 19.925781 12.660156 C 19.261719 11.960938 17.132812 9.085938 16.582031 8.46875 C 15.535156 7.300781 14.257812 5.445312 13.640625 5.019531 C 13.402344 4.859375 13.136719 4.761719 12.855469 4.761719 Z M 12.855469 4.929688 C 13.089844 4.929688 13.320312 5.003906 13.542969 5.160156 C 13.894531 5.398438 14.503906 6.171875 15.148438 6.984375 C 15.585938 7.539062 16.035156 8.113281 16.457031 8.582031 C 16.691406 8.84375 17.238281 9.550781 17.816406 10.296875 C 18.570312 11.269531 19.421875 12.375 19.800781 12.773438 C 20.125 13.113281 20.484375 13.285156 20.863281 13.285156 C 21.019531 13.285156 21.179688 13.253906 21.339844 13.199219 C 21.890625 13 22.203125 12.535156 22.195312 11.921875 C 22.191406 11.359375 22.257812 10.871094 22.410156 10.421875 C 22.570312 9.9375 22.824219 9.511719 23.179688 9.121094 C 23.542969 8.726562 24.445312 8.402344 25.1875 8.402344 C 25.464844 8.402344 25.691406 8.445312 25.847656 8.53125 C 26.097656 8.667969 26.265625 8.863281 26.335938 9.09375 C 26.40625 9.328125 26.371094 9.59375 26.242188 9.863281 C 26.15625 10.035156 26.070312 10.210938 25.984375 10.378906 C 25.546875 11.234375 25.101562 12.117188 25.007812 13.15625 C 24.953125 13.738281 25.035156 14.292969 25.109375 14.828125 C 25.136719 15.023438 25.164062 15.222656 25.1875 15.417969 C 25.234375 15.859375 25.304688 16.300781 25.375 16.730469 C 25.539062 17.75 25.707031 18.804688 25.5625 19.835938 L 25.5625 19.851562 C 25.480469 21.5625 24.484375 22.878906 23.664062 23.679688 C 22.695312 24.625 21.417969 25.386719 20.246094 25.71875 C 19.667969 25.878906 19.109375 25.960938 18.589844 25.960938 C 17.667969 25.960938 16.835938 25.714844 16.046875 25.210938 C 15.152344 24.640625 14.347656 23.925781 13.566406 23.230469 C 13.429688 23.109375 13.289062 22.988281 13.152344 22.863281 C 12.757812 22.519531 12.355469 22.167969 11.96875 21.828125 C 10.59375 20.632812 9.171875 19.394531 7.839844 18.109375 C 7.554688 17.832031 7.355469 17.589844 7.203125 17.324219 C 6.960938 16.902344 6.863281 16.628906 6.871094 16.417969 C 6.882812 16.207031 7 16.015625 7.273438 15.757812 C 7.398438 15.640625 7.640625 15.570312 7.921875 15.570312 C 8.253906 15.570312 8.585938 15.664062 8.835938 15.828125 C 9.265625 16.113281 10.101562 16.863281 10.910156 17.59375 C 11.546875 18.164062 12.148438 18.707031 12.578125 19.046875 C 12.632812 19.085938 12.695312 19.109375 12.757812 19.109375 C 12.867188 19.109375 12.972656 19.042969 13.023438 18.945312 C 13.070312 18.847656 13.058594 18.730469 12.988281 18.640625 C 12.34375 17.824219 10.757812 16.207031 10.011719 15.464844 C 9.664062 15.121094 9.3125 14.777344 8.96875 14.441406 C 8.351562 13.835938 7.710938 13.207031 7.09375 12.578125 C 6.617188 12.097656 6.171875 11.566406 6.398438 10.882812 C 6.566406 10.371094 6.941406 10.09375 7.449219 10.09375 C 7.839844 10.09375 8.265625 10.261719 8.625 10.554688 C 9.320312 11.125 9.953125 11.800781 10.566406 12.457031 C 10.792969 12.699219 11.03125 12.953125 11.269531 13.199219 C 11.410156 13.34375 11.597656 13.542969 11.8125 13.773438 C 12.507812 14.511719 13.460938 15.519531 14.03125 15.96875 C 14.085938 16.015625 14.152344 16.039062 14.222656 16.039062 C 14.335938 16.039062 14.441406 15.976562 14.496094 15.875 C 14.550781 15.777344 14.546875 15.660156 14.484375 15.5625 C 14.265625 15.214844 13.949219 14.878906 13.671875 14.582031 C 13.523438 14.417969 13.378906 14.265625 13.269531 14.128906 C 12.789062 13.535156 12.269531 12.957031 11.769531 12.398438 C 11.324219 11.90625 10.867188 11.394531 10.4375 10.875 C 10.25 10.648438 9.980469 10.363281 9.671875 10.03125 C 8.945312 9.257812 8.042969 8.289062 7.78125 7.660156 C 7.671875 7.398438 7.652344 7.128906 7.730469 6.882812 C 7.800781 6.648438 7.953125 6.449219 8.164062 6.300781 C 8.390625 6.140625 8.632812 6.0625 8.882812 6.0625 C 9.164062 6.0625 9.445312 6.160156 9.726562 6.351562 C 10.183594 6.667969 10.527344 7.085938 10.890625 7.527344 C 11.007812 7.664062 11.125 7.808594 11.246094 7.949219 C 12.496094 9.375 14.992188 12.175781 15.945312 13.226562 C 15.996094 13.28125 16.066406 13.3125 16.140625 13.3125 C 16.238281 13.3125 16.328125 13.261719 16.375 13.175781 C 16.421875 13.09375 16.417969 12.996094 16.367188 12.914062 C 15.910156 12.175781 14.820312 10.671875 13.210938 8.566406 C 13.140625 8.472656 13.066406 8.375 12.988281 8.277344 C 12.53125 7.683594 12.011719 7.007812 11.734375 6.492188 C 11.605469 6.234375 11.605469 5.957031 11.738281 5.667969 C 11.90625 5.292969 12.261719 5.015625 12.660156 4.945312 C 12.726562 4.933594 12.789062 4.929688 12.855469 4.929688 " fill-opacity="1" fill-rule="nonzero"/></g><path fill="#53524e" d="M 16.082031 3.546875 C 17.492188 4.332031 18.632812 5.542969 19.34375 6.980469 C 19.542969 7.378906 19.703125 7.789062 19.828125 8.21875 C 19.929688 8.554688 20.460938 8.410156 20.359375 8.074219 C 19.878906 6.445312 18.890625 4.964844 17.566406 3.894531 C 17.1875 3.585938 16.785156 3.3125 16.359375 3.074219 C 16.050781 2.902344 15.773438 3.375 16.082031 3.546875 " fill-opacity="1" fill-rule="nonzero"/><path fill="#53524e" d="M 15.519531 5.15625 C 16.765625 5.882812 17.6875 7.097656 18.082031 8.476562 C 18.179688 8.8125 18.710938 8.667969 18.613281 8.332031 C 18.277344 7.15625 17.589844 6.078125 16.652344 5.289062 C 16.382812 5.066406 16.097656 4.859375 15.796875 4.683594 C 15.492188 4.507812 15.210938 4.980469 15.519531 5.15625 " fill-opacity="1" fill-rule="nonzero"/><g clip-path="url(#b976bf3881)"><path fill="#53524e" d="M 3.464844 18.296875 C 4.203125 19.820312 5.425781 21.113281 6.90625 21.953125 C 7.332031 22.199219 7.78125 22.402344 8.242188 22.566406 C 8.382812 22.617188 8.542969 22.511719 8.582031 22.378906 C 8.621094 22.226562 8.527344 22.089844 8.386719 22.039062 C 6.894531 21.5 5.5625 20.488281 4.640625 19.203125 C 4.375 18.828125 4.140625 18.433594 3.941406 18.019531 C 3.875 17.886719 3.683594 17.851562 3.5625 17.921875 C 3.425781 18 3.398438 18.164062 3.464844 18.296875 " fill-opacity="1" fill-rule="nonzero"/></g><path fill="#53524e" d="M 5.121094 17.839844 C 5.667969 18.921875 6.566406 19.828125 7.628906 20.414062 C 7.941406 20.589844 8.273438 20.738281 8.613281 20.855469 C 8.753906 20.90625 8.914062 20.800781 8.953125 20.664062 C 8.992188 20.515625 8.898438 20.378906 8.761719 20.328125 C 7.398438 19.847656 6.246094 18.84375 5.597656 17.566406 C 5.527344 17.433594 5.34375 17.398438 5.21875 17.46875 C 5.085938 17.546875 5.054688 17.710938 5.121094 17.839844 " fill-opacity="1" fill-rule="nonzero"/></svg>