<svg xmlns="http://www.w3.org/2000/svg" xmlns:xlink="http://www.w3.org/1999/xlink" width="40" zoomAndPan="magnify" viewBox="0 0 30 30.000001" height="40" preserveAspectRatio="xMidYMid meet" version="1.0"><defs><clipPath id="0b3e4d7710"><path d="M 3.242188 2.902344 L 26.46875 2.902344 L 26.46875 26.128906 L 3.242188 26.128906 Z M 3.242188 2.902344 " clip-rule="nonzero"/></clipPath></defs><path fill="#ffffff" d="M 16.453125 7.988281 C 15.757812 6.027344 13.875 4.605469 11.679688 4.605469 C 11.085938 4.605469 10.492188 4.710938 9.976562 4.917969 L 13.253906 7.988281 Z M 16.453125 7.988281 " fill-opacity="1" fill-rule="nonzero"/><path fill="#ffffff" d="M 9.230469 5.25 C 8.171875 5.84375 7.34375 6.824219 6.933594 7.988281 L 12.144531 7.988281 Z M 9.230469 5.25 " fill-opacity="1" fill-rule="nonzero"/><g clip-path="url(#0b3e4d7710)"><path fill="#ffffff" d="M 25.460938 2.902344 L 20.378906 2.902344 C 19.808594 2.902344 19.371094 3.367188 19.371094 3.910156 L 19.371094 9.457031 C 19.371094 10.566406 20.171875 11.496094 21.253906 11.675781 L 21.253906 12.089844 C 21.253906 12.890625 21.796875 13.535156 22.546875 13.714844 L 22.546875 22.515625 C 22.546875 23.238281 21.953125 23.832031 21.230469 23.832031 L 20.171875 23.832031 L 20.171875 22.515625 C 20.121094 19.03125 17.539062 18.308594 15.269531 17.691406 C 14.933594 17.585938 14.597656 17.507812 14.285156 17.40625 L 14.285156 16.582031 C 15.472656 15.882812 16.351562 14.722656 16.660156 13.328125 L 17.101562 13.328125 C 18.027344 13.328125 18.75 12.582031 18.75 11.675781 C 18.75 10.773438 18.003906 10.027344 17.101562 10.027344 L 16.789062 10.027344 L 16.789062 9.714844 C 16.789062 9.40625 16.765625 9.097656 16.714844 8.8125 L 6.726562 8.8125 C 6.675781 9.097656 6.648438 9.40625 6.648438 9.714844 L 6.648438 10.027344 L 6.339844 10.027344 C 5.410156 10.027344 4.6875 10.773438 4.6875 11.675781 C 4.6875 12.582031 5.433594 13.328125 6.339844 13.328125 L 6.777344 13.328125 C 7.085938 14.722656 7.964844 15.882812 9.152344 16.582031 L 9.152344 17.40625 C 8.816406 17.507812 8.480469 17.613281 8.171875 17.691406 C 5.875 18.308594 3.292969 19.03125 3.242188 22.515625 L 3.242188 25.742188 C 3.242188 25.949219 3.421875 26.128906 3.628906 26.128906 L 19.757812 26.128906 C 19.964844 26.128906 20.144531 25.949219 20.144531 25.742188 L 20.144531 24.632812 L 21.203125 24.632812 C 22.363281 24.632812 23.292969 23.703125 23.292969 22.542969 L 23.292969 13.742188 C 24.042969 13.5625 24.582031 12.917969 24.582031 12.117188 L 24.582031 11.675781 C 25.640625 11.496094 26.46875 10.566406 26.46875 9.457031 L 26.46875 3.910156 C 26.46875 3.367188 26.003906 2.902344 25.460938 2.902344 Z M 16.765625 12.195312 L 16.765625 10.75 L 17.074219 10.75 C 17.566406 10.75 17.953125 11.136719 17.953125 11.625 C 17.953125 12.117188 17.566406 12.503906 17.074219 12.503906 L 16.738281 12.503906 C 16.738281 12.425781 16.765625 12.324219 16.765625 12.195312 Z M 6.3125 12.527344 C 5.824219 12.527344 5.433594 12.140625 5.433594 11.652344 C 5.433594 11.160156 5.824219 10.773438 6.3125 10.773438 L 6.621094 10.773438 L 6.621094 12.195312 C 6.621094 12.296875 6.621094 12.425781 6.648438 12.527344 Z M 7.398438 12.195312 L 7.398438 10.75 L 15.992188 10.75 L 15.992188 12.195312 C 15.992188 14.566406 14.054688 16.476562 11.707031 16.476562 C 9.359375 16.476562 7.398438 14.566406 7.398438 12.195312 Z M 13.488281 17.664062 C 13.488281 18.644531 12.6875 19.472656 11.679688 19.472656 C 10.675781 19.472656 9.875 18.671875 9.875 17.664062 L 9.875 16.941406 C 10.441406 17.148438 11.035156 17.277344 11.679688 17.277344 C 12.324219 17.277344 12.917969 17.148438 13.488281 16.941406 Z M 23.808594 12.117188 C 23.808594 12.605469 23.398438 13.019531 22.90625 13.019531 C 22.417969 13.019531 22.003906 12.605469 22.003906 12.117188 L 22.003906 11.730469 L 23.808594 11.730469 Z M 24.121094 7.703125 L 23.320312 7.703125 L 23.320312 8.503906 C 23.320312 8.710938 23.140625 8.890625 22.933594 8.890625 C 22.726562 8.890625 22.546875 8.710938 22.546875 8.503906 L 22.546875 7.703125 L 21.746094 7.703125 C 21.539062 7.703125 21.359375 7.523438 21.359375 7.316406 C 21.359375 7.109375 21.539062 6.929688 21.746094 6.929688 L 22.546875 6.929688 L 22.546875 6.128906 C 22.546875 5.921875 22.726562 5.742188 22.933594 5.742188 C 23.140625 5.742188 23.320312 5.921875 23.320312 6.128906 L 23.320312 6.929688 L 24.121094 6.929688 C 24.324219 6.929688 24.507812 7.109375 24.507812 7.316406 C 24.507812 7.523438 24.324219 7.703125 24.121094 7.703125 Z M 24.121094 7.703125 " fill-opacity="1" fill-rule="nonzero"/></g></svg>