<svg xmlns="http://www.w3.org/2000/svg" xmlns:xlink="http://www.w3.org/1999/xlink" width="40" zoomAndPan="magnify" viewBox="0 0 30 30.000001" height="40" preserveAspectRatio="xMidYMid meet" version="1.0"><defs><clipPath id="6db1799e7a"><path d="M 0.484375 0 L 29.515625 0 L 29.515625 29.03125 L 0.484375 29.03125 Z M 0.484375 0 " clip-rule="nonzero"/></clipPath><clipPath id="a109d458d9"><path d="M 13 8 L 27.339844 8 L 27.339844 19 L 13 19 Z M 13 8 " clip-rule="nonzero"/></clipPath><clipPath id="3c4e8cf838"><path d="M 3.386719 6.222656 L 24 6.222656 L 24 22.917969 L 3.386719 22.917969 Z M 3.386719 6.222656 " clip-rule="nonzero"/></clipPath></defs><g clip-path="url(#6db1799e7a)"><path fill="#ffffff" d="M 0.484375 0 L 29.515625 0 L 29.515625 29.03125 L 0.484375 29.03125 Z M 0.484375 0 " fill-opacity="1" fill-rule="nonzero"/><path fill="#ffffff" d="M 0.484375 0 L 29.515625 0 L 29.515625 29.03125 L 0.484375 29.03125 Z M 0.484375 0 " fill-opacity="1" fill-rule="nonzero"/></g><g clip-path="url(#a109d458d9)"><path fill="#4e96a8" d="M 15.480469 8.15625 C 14.652344 8.15625 13.851562 8.25 13.070312 8.417969 L 14.449219 9.796875 C 14.78125 9.71875 15.125 9.675781 15.480469 9.675781 C 18.09375 9.675781 20.21875 11.800781 20.21875 14.414062 C 20.21875 14.769531 20.175781 15.125 20.109375 15.453125 L 22.933594 18.277344 C 25.757812 16.511719 27.578125 14.414062 27.578125 14.414062 C 27.578125 14.414062 22.164062 8.15625 15.480469 8.15625 Z M 15.480469 8.15625 " fill-opacity="1" fill-rule="nonzero"/></g><g clip-path="url(#3c4e8cf838)"><path fill="#4e96a8" d="M 7.292969 7.421875 L 9.554688 9.6875 C 5.875 11.539062 3.386719 14.414062 3.386719 14.414062 C 3.386719 14.414062 8.800781 20.671875 15.480469 20.671875 C 16.976562 20.671875 18.410156 20.351562 19.734375 19.863281 L 22.472656 22.605469 L 23.671875 21.410156 L 8.488281 6.226562 Z M 15.480469 19.152344 C 12.867188 19.152344 10.746094 17.027344 10.746094 14.414062 C 10.746094 13.414062 11.058594 12.484375 11.589844 11.71875 L 13.21875 13.347656 C 13.066406 13.671875 12.976562 14.03125 12.976562 14.414062 C 12.976562 15.800781 14.09375 16.917969 15.480469 16.917969 C 15.863281 16.917969 16.222656 16.832031 16.546875 16.679688 L 18.175781 18.304688 C 17.410156 18.835938 16.484375 19.152344 15.480469 19.152344 Z M 15.480469 19.152344 " fill-opacity="1" fill-rule="nonzero"/></g></svg>