<svg xmlns="http://www.w3.org/2000/svg" xmlns:xlink="http://www.w3.org/1999/xlink" width="40" zoomAndPan="magnify" viewBox="0 0 30 30.000001" height="40" preserveAspectRatio="xMidYMid meet" version="1.0"><defs><clipPath id="75e071af26"><path d="M 3.53125 2.902344 L 26.757812 2.902344 L 26.757812 26 L 3.53125 26 Z M 3.53125 2.902344 " clip-rule="nonzero"/></clipPath></defs><g clip-path="url(#75e071af26)"><path fill="#ffffff" d="M 15.066406 2.902344 C 21.441406 2.902344 26.605469 8.066406 26.605469 14.4375 C 26.605469 20.808594 21.441406 25.976562 15.066406 25.976562 C 8.695312 25.976562 3.53125 20.808594 3.53125 14.4375 C 3.53125 8.066406 8.695312 2.902344 15.066406 2.902344 Z M 12.03125 12.828125 C 12.015625 11.671875 14.660156 11.039062 15.859375 11.355469 C 18.894531 12.160156 14.496094 19.230469 15.257812 20.273438 C 15.683594 20.855469 17.601562 20.398438 17.601562 20.925781 C 17.601562 21.453125 16.300781 22.828125 14.078125 22.371094 C 11.855469 21.914062 12.457031 20.363281 12.757812 19.109375 C 13.054688 17.859375 14.34375 14.402344 14.34375 13.804688 C 14.34375 11.925781 12.003906 13.324219 12.03125 12.828125 Z M 16.367188 6.410156 C 17.324219 6.410156 18.101562 7.1875 18.101562 8.148438 C 18.101562 9.105469 17.324219 9.882812 16.367188 9.882812 C 15.40625 9.882812 14.628906 9.105469 14.628906 8.148438 C 14.628906 7.1875 15.40625 6.410156 16.367188 6.410156 Z M 16.367188 6.410156 " fill-opacity="1" fill-rule="evenodd"/></g></svg>