<svg xmlns="http://www.w3.org/2000/svg" xmlns:xlink="http://www.w3.org/1999/xlink" width="40" zoomAndPan="magnify" viewBox="0 0 30 30.000001" height="40" preserveAspectRatio="xMidYMid meet" version="1.0"><defs><clipPath id="87927e33a1"><path d="M 3.714844 17 L 12 17 L 12 23 L 3.714844 23 Z M 3.714844 17 " clip-rule="nonzero"/></clipPath><clipPath id="b88c9a9578"><path d="M 18 17 L 26.214844 17 L 26.214844 23 L 18 23 Z M 18 17 " clip-rule="nonzero"/></clipPath><clipPath id="aed0916a7b"><path d="M 10 19 L 20 19 L 20 24.140625 L 10 24.140625 Z M 10 19 " clip-rule="nonzero"/></clipPath><clipPath id="63582be387"><path d="M 10 4.542969 L 20 4.542969 L 20 13 L 10 13 Z M 10 4.542969 " clip-rule="nonzero"/></clipPath></defs><path fill="#ffffff" d="M 8.605469 11.433594 L 8.605469 10.058594 C 8.605469 9.492188 9.054688 9.042969 9.625 9.042969 L 10.144531 9.042969 C 10.121094 8.898438 10.121094 8.734375 10.121094 8.589844 C 10.121094 8.449219 10.121094 8.285156 10.144531 8.140625 L 9.625 8.140625 C 8.558594 8.140625 7.707031 8.992188 7.707031 10.058594 L 7.707031 11.433594 C 7.847656 11.410156 8.011719 11.410156 8.15625 11.410156 C 8.296875 11.410156 8.464844 11.410156 8.605469 11.433594 Z M 8.605469 11.433594 " fill-opacity="1" fill-rule="nonzero"/><path fill="#ffffff" d="M 20.445312 9.042969 C 20.988281 9.042969 21.460938 9.492188 21.460938 10.058594 L 21.460938 11.433594 C 21.605469 11.410156 21.769531 11.410156 21.914062 11.410156 C 22.078125 11.410156 22.21875 11.410156 22.363281 11.433594 L 22.363281 10.058594 C 22.363281 8.992188 21.511719 8.140625 20.445312 8.140625 L 19.921875 8.140625 C 19.945312 8.285156 19.945312 8.449219 19.945312 8.589844 C 19.945312 8.734375 19.945312 8.898438 19.921875 9.042969 Z M 20.445312 9.042969 " fill-opacity="1" fill-rule="nonzero"/><g clip-path="url(#87927e33a1)"><path fill="#ffffff" d="M 11.800781 19.222656 C 11.421875 18.511719 10.808594 17.96875 10.074219 17.660156 C 9.527344 18.039062 8.84375 18.253906 8.132812 18.253906 C 7.421875 18.253906 6.757812 18.039062 6.191406 17.660156 C 5.289062 18.0625 4.554688 18.796875 4.226562 19.742188 C 3.964844 20.453125 3.796875 21.210938 3.75 21.96875 C 3.726562 22.324219 4.011719 22.609375 4.367188 22.609375 L 9.882812 22.609375 C 9.980469 22.160156 10.097656 21.710938 10.238281 21.28125 C 10.570312 20.453125 11.113281 19.742188 11.800781 19.222656 Z M 11.800781 19.222656 " fill-opacity="1" fill-rule="nonzero"/></g><path fill="#ffffff" d="M 8.15625 17.351562 C 9.550781 17.351562 10.664062 16.214844 10.664062 14.84375 C 10.664062 13.445312 9.527344 12.332031 8.15625 12.332031 C 6.78125 12.332031 5.644531 13.46875 5.644531 14.84375 C 5.621094 16.214844 6.757812 17.351562 8.15625 17.351562 Z M 8.15625 17.351562 " fill-opacity="1" fill-rule="nonzero"/><g clip-path="url(#b88c9a9578)"><path fill="#ffffff" d="M 25.796875 19.742188 C 25.464844 18.773438 24.730469 18.039062 23.832031 17.660156 C 23.285156 18.039062 22.621094 18.253906 21.890625 18.253906 C 21.179688 18.253906 20.492188 18.039062 19.945312 17.660156 C 19.214844 17.96875 18.621094 18.511719 18.21875 19.222656 C 18.90625 19.742188 19.449219 20.453125 19.757812 21.304688 C 19.898438 21.734375 20.042969 22.183594 20.113281 22.632812 L 25.628906 22.632812 C 25.984375 22.632812 26.269531 22.347656 26.246094 21.992188 C 26.222656 21.210938 26.054688 20.453125 25.796875 19.742188 Z M 25.796875 19.742188 " fill-opacity="1" fill-rule="nonzero"/></g><path fill="#ffffff" d="M 21.890625 17.351562 C 23.285156 17.351562 24.398438 16.214844 24.398438 14.84375 C 24.398438 13.445312 23.261719 12.332031 21.890625 12.332031 C 20.492188 12.332031 19.378906 13.46875 19.378906 14.84375 C 19.378906 16.214844 20.515625 17.351562 21.890625 17.351562 Z M 21.890625 17.351562 " fill-opacity="1" fill-rule="nonzero"/><g clip-path="url(#aed0916a7b)"><path fill="#ffffff" d="M 16.964844 19.507812 C 16.417969 19.886719 15.757812 20.097656 15.023438 20.097656 C 14.3125 20.097656 13.648438 19.886719 13.082031 19.507812 C 12.179688 19.910156 11.46875 20.644531 11.113281 21.613281 C 10.855469 22.324219 10.710938 23.082031 10.640625 23.839844 C 10.617188 24.195312 10.902344 24.480469 11.257812 24.480469 L 18.785156 24.480469 C 19.140625 24.480469 19.425781 24.195312 19.402344 23.839844 C 19.355469 23.082031 19.191406 22.324219 18.929688 21.613281 C 18.574219 20.644531 17.863281 19.910156 16.964844 19.507812 Z M 16.964844 19.507812 " fill-opacity="1" fill-rule="nonzero"/></g><path fill="#ffffff" d="M 12.511719 16.6875 C 12.511719 18.085938 13.648438 19.199219 15.023438 19.199219 C 16.417969 19.199219 17.53125 18.0625 17.53125 16.6875 C 17.53125 15.292969 16.394531 14.179688 15.023438 14.179688 C 13.625 14.179688 12.511719 15.292969 12.511719 16.6875 Z M 12.511719 16.6875 " fill-opacity="1" fill-rule="nonzero"/><g clip-path="url(#63582be387)"><path fill="#ffffff" d="M 15.023438 12.640625 C 17.246094 12.640625 19.070312 10.816406 19.070312 8.589844 C 19.070312 6.367188 17.246094 4.542969 15.023438 4.542969 C 12.796875 4.542969 10.972656 6.367188 10.972656 8.589844 C 10.972656 10.816406 12.796875 12.640625 15.023438 12.640625 Z M 14.597656 5.914062 C 14.714844 5.796875 14.855469 5.75 15.046875 5.75 C 15.234375 5.75 15.378906 5.820312 15.496094 5.914062 C 15.613281 6.035156 15.683594 6.175781 15.683594 6.367188 C 15.683594 6.554688 15.613281 6.695312 15.496094 6.816406 C 15.378906 6.933594 15.234375 6.980469 15.046875 6.980469 C 14.855469 6.980469 14.714844 6.910156 14.597656 6.816406 C 14.476562 6.695312 14.40625 6.53125 14.40625 6.367188 C 14.40625 6.199219 14.476562 6.035156 14.597656 5.914062 Z M 13.957031 7.90625 C 13.957031 7.785156 14.027344 7.691406 14.144531 7.691406 L 15.046875 7.550781 C 15.046875 7.550781 15.070312 7.550781 15.09375 7.550781 L 15.328125 7.550781 C 15.449219 7.550781 15.542969 7.644531 15.542969 7.761719 L 15.542969 10.628906 C 15.542969 10.628906 15.921875 10.675781 15.921875 10.675781 C 16.015625 10.675781 16.109375 10.769531 16.109375 10.886719 L 16.109375 11.078125 C 16.109375 11.195312 16.015625 11.289062 15.898438 11.289062 L 14.167969 11.289062 C 14.050781 11.289062 13.957031 11.195312 13.957031 11.078125 L 13.957031 10.886719 C 13.957031 10.769531 14.050781 10.675781 14.167969 10.675781 L 14.570312 10.628906 L 14.570312 8.355469 L 14.144531 8.308594 C 14.027344 8.308594 13.933594 8.210938 13.933594 8.09375 L 13.933594 7.90625 Z M 13.957031 7.90625 " fill-opacity="1" fill-rule="nonzero"/></g></svg>