<svg xmlns="http://www.w3.org/2000/svg" xmlns:xlink="http://www.w3.org/1999/xlink" width="40" zoomAndPan="magnify" viewBox="0 0 30 30.000001" height="40" preserveAspectRatio="xMidYMid meet" version="1.0"><defs><clipPath id="a07119b9c0"><path d="M 3.386719 3.398438 L 21 3.398438 L 21 21 L 3.386719 21 Z M 3.386719 3.398438 " clip-rule="nonzero"/></clipPath><clipPath id="6832027c6e"><path d="M 13 17 L 22 17 L 22 25.898438 L 13 25.898438 Z M 13 17 " clip-rule="nonzero"/></clipPath></defs><g clip-path="url(#a07119b9c0)"><path fill="#ffffff" d="M 20.976562 10.519531 L 18.03125 10.519531 C 17.921875 9.175781 17.582031 7.886719 17.015625 6.664062 C 16.445312 5.4375 15.683594 4.347656 14.722656 3.398438 C 15.535156 3.625 16.292969 3.964844 17.003906 4.414062 C 17.714844 4.863281 18.347656 5.402344 18.902344 6.035156 C 19.457031 6.667969 19.910156 7.367188 20.261719 8.128906 C 20.617188 8.890625 20.851562 9.6875 20.976562 10.519531 Z M 8.625 12.421875 L 11.628906 12.421875 L 11.628906 18.964844 C 10.71875 18.117188 10.003906 17.125 9.492188 15.988281 C 8.976562 14.855469 8.703125 13.664062 8.664062 12.421875 Z M 8.625 10.519531 C 8.734375 9.375 9.046875 8.292969 9.566406 7.265625 C 10.085938 6.238281 10.773438 5.34375 11.628906 4.574219 L 11.628906 10.519531 Z M 13.527344 4.867188 C 14.277344 5.640625 14.875 6.515625 15.320312 7.492188 C 15.769531 8.472656 16.039062 9.496094 16.128906 10.570312 L 13.527344 10.570312 Z M 10.144531 3.359375 C 9.175781 4.3125 8.402344 5.402344 7.824219 6.636719 C 7.25 7.871094 6.910156 9.164062 6.800781 10.519531 L 3.761719 10.519531 C 3.886719 9.675781 4.128906 8.871094 4.488281 8.097656 C 4.847656 7.324219 5.3125 6.621094 5.878906 5.984375 C 6.449219 5.347656 7.09375 4.804688 7.820312 4.359375 C 8.546875 3.910156 9.320312 3.578125 10.144531 3.359375 Z M 3.695312 12.421875 L 6.765625 12.421875 C 6.8125 13.882812 7.128906 15.285156 7.710938 16.625 C 8.296875 17.964844 9.105469 19.152344 10.144531 20.179688 C 9.273438 19.949219 8.453125 19.589844 7.691406 19.101562 C 6.929688 18.617188 6.261719 18.027344 5.683594 17.332031 C 5.105469 16.636719 4.644531 15.867188 4.308594 15.03125 C 3.96875 14.191406 3.765625 13.324219 3.695312 12.421875 Z M 14.363281 17.710938 C 14.113281 18.050781 13.832031 18.367188 13.527344 18.660156 L 13.527344 12.421875 L 16.179688 12.421875 C 16.09375 14.363281 15.488281 16.125 14.363281 17.710938 Z M 14.363281 17.710938 " fill-opacity="1" fill-rule="nonzero"/></g><g clip-path="url(#6832027c6e)"><path fill="#ffffff" d="M 20.035156 21.425781 L 19.027344 22.433594 C 18.847656 22.652344 18.632812 22.828125 18.382812 22.960938 C 18.132812 23.097656 17.867188 23.179688 17.585938 23.210938 C 17.300781 23.242188 17.023438 23.21875 16.753906 23.140625 C 16.480469 23.066406 16.230469 22.9375 16.007812 22.765625 C 15.835938 22.539062 15.710938 22.289062 15.640625 22.015625 C 15.566406 21.738281 15.546875 21.460938 15.578125 21.179688 C 15.613281 20.898438 15.699219 20.632812 15.839844 20.382812 C 15.976562 20.136719 16.15625 19.921875 16.378906 19.746094 L 17.328125 18.738281 C 17.511719 18.550781 17.605469 18.328125 17.605469 18.0625 C 17.605469 17.800781 17.511719 17.574219 17.328125 17.390625 C 17.140625 17.203125 16.917969 17.109375 16.652344 17.109375 C 16.390625 17.109375 16.164062 17.203125 15.976562 17.390625 L 14.972656 18.394531 C 14.773438 18.574219 14.597656 18.769531 14.4375 18.980469 C 14.28125 19.191406 14.144531 19.417969 14.03125 19.65625 C 13.914062 19.894531 13.824219 20.140625 13.757812 20.398438 C 13.691406 20.652344 13.652344 20.914062 13.636719 21.175781 C 13.621094 21.441406 13.632812 21.703125 13.667969 21.964844 C 13.703125 22.230469 13.765625 22.484375 13.851562 22.734375 C 13.9375 22.984375 14.046875 23.226562 14.179688 23.453125 C 14.3125 23.683594 14.464844 23.894531 14.640625 24.09375 C 14.839844 24.269531 15.050781 24.421875 15.28125 24.554688 C 15.507812 24.6875 15.75 24.796875 16 24.882812 C 16.25 24.96875 16.503906 25.03125 16.769531 25.066406 C 17.03125 25.101562 17.292969 25.113281 17.558594 25.097656 C 17.820312 25.082031 18.082031 25.042969 18.335938 24.976562 C 18.59375 24.910156 18.839844 24.820312 19.078125 24.703125 C 19.316406 24.589844 19.542969 24.453125 19.753906 24.296875 C 19.964844 24.136719 20.160156 23.960938 20.339844 23.761719 L 21.34375 22.757812 C 21.53125 22.570312 21.621094 22.34375 21.621094 22.082031 C 21.621094 21.820312 21.527344 21.597656 21.339844 21.410156 C 21.152344 21.226562 20.929688 21.136719 20.667969 21.136719 C 20.40625 21.136719 20.179688 21.230469 19.996094 21.417969 Z M 20.035156 21.425781 " fill-opacity="1" fill-rule="nonzero"/></g><path fill="#ffffff" d="M 19.027344 14.367188 L 18.019531 15.375 C 17.835938 15.5625 17.742188 15.785156 17.746094 16.046875 C 17.746094 16.3125 17.839844 16.535156 18.027344 16.71875 C 18.210938 16.902344 18.4375 16.996094 18.699219 16.996094 C 18.960938 16.996094 19.183594 16.902344 19.371094 16.714844 L 20.375 15.707031 C 20.558594 15.488281 20.773438 15.3125 21.023438 15.179688 C 21.273438 15.042969 21.539062 14.960938 21.820312 14.929688 C 22.101562 14.898438 22.378906 14.921875 22.652344 15 C 22.925781 15.074219 23.171875 15.203125 23.398438 15.375 C 23.570312 15.601562 23.691406 15.851562 23.765625 16.125 C 23.839844 16.402344 23.859375 16.679688 23.824219 16.960938 C 23.789062 17.242188 23.703125 17.507812 23.566406 17.757812 C 23.425781 18.003906 23.246094 18.21875 23.027344 18.394531 L 22.078125 19.402344 C 21.890625 19.589844 21.796875 19.8125 21.796875 20.078125 C 21.796875 20.339844 21.890625 20.566406 22.078125 20.753906 C 22.261719 20.9375 22.488281 21.03125 22.75 21.03125 C 23.015625 21.03125 23.238281 20.9375 23.425781 20.75 L 24.433594 19.746094 C 24.628906 19.566406 24.804688 19.371094 24.964844 19.160156 C 25.125 18.949219 25.257812 18.722656 25.375 18.484375 C 25.488281 18.246094 25.578125 18 25.644531 17.742188 C 25.710938 17.488281 25.753906 17.226562 25.765625 16.964844 C 25.78125 16.699219 25.773438 16.4375 25.738281 16.175781 C 25.699219 15.910156 25.640625 15.65625 25.554688 15.40625 C 25.46875 15.15625 25.359375 14.914062 25.226562 14.6875 C 25.09375 14.457031 24.941406 14.242188 24.765625 14.046875 C 24.566406 13.867188 24.351562 13.710938 24.121094 13.574219 C 23.890625 13.441406 23.652344 13.328125 23.398438 13.242188 C 23.148438 13.152344 22.890625 13.089844 22.625 13.050781 C 22.359375 13.015625 22.097656 13.003906 21.828125 13.019531 C 21.5625 13.035156 21.300781 13.074219 21.042969 13.140625 C 20.785156 13.207031 20.535156 13.300781 20.292969 13.414062 C 20.054688 13.53125 19.828125 13.667969 19.613281 13.828125 C 19.402344 13.988281 19.207031 14.167969 19.027344 14.367188 Z M 19.027344 14.367188 " fill-opacity="1" fill-rule="nonzero"/><path fill="#ffffff" d="M 17.382812 21.3125 C 17.578125 21.5 17.808594 21.597656 18.078125 21.605469 C 18.34375 21.613281 18.574219 21.527344 18.769531 21.351562 L 21.753906 18.367188 C 21.941406 18.179688 22.03125 17.957031 22.03125 17.691406 C 22.03125 17.429688 21.941406 17.207031 21.753906 17.019531 C 21.566406 16.832031 21.34375 16.738281 21.078125 16.738281 C 20.816406 16.738281 20.589844 16.832031 20.40625 17.019531 L 17.421875 20.019531 C 17.246094 20.199219 17.15625 20.410156 17.148438 20.660156 C 17.140625 20.90625 17.21875 21.125 17.382812 21.3125 Z M 17.382812 21.3125 " fill-opacity="1" fill-rule="nonzero"/></svg>