<svg xmlns="http://www.w3.org/2000/svg" xmlns:xlink="http://www.w3.org/1999/xlink" width="40" zoomAndPan="magnify" viewBox="0 0 30 30.000001" height="40" preserveAspectRatio="xMidYMid meet" version="1.0"><defs><clipPath id="97c70e7dc9"><path d="M 5.367188 5 L 24.964844 5 L 24.964844 25.960938 L 5.367188 25.960938 Z M 5.367188 5 " clip-rule="nonzero"/></clipPath><clipPath id="dd95e042d3"><path d="M 12 2.734375 L 18 2.734375 L 18 6 L 12 6 Z M 12 2.734375 " clip-rule="nonzero"/></clipPath></defs><path fill="#4e96a8" d="M 22.640625 24.71875 L 7.328125 24.71875 C 7.113281 24.71875 6.9375 24.542969 6.9375 24.324219 L 6.9375 7.050781 C 6.9375 6.835938 7.113281 6.660156 7.328125 6.660156 L 11.253906 6.660156 C 11.472656 6.660156 11.648438 6.835938 11.648438 7.050781 L 11.648438 7.445312 L 18.714844 7.445312 L 18.714844 7.050781 C 18.714844 6.835938 18.890625 6.660156 19.105469 6.660156 L 22.640625 6.660156 C 22.855469 6.660156 23.03125 6.835938 23.03125 7.050781 L 23.03125 24.324219 C 23.03125 24.542969 22.855469 24.71875 22.640625 24.71875 Z M 7.722656 23.933594 L 22.246094 23.933594 L 22.246094 7.445312 L 19.5 7.445312 L 19.5 7.835938 C 19.5 8.054688 19.324219 8.230469 19.105469 8.230469 L 11.253906 8.230469 C 11.039062 8.230469 10.863281 8.054688 10.863281 7.835938 L 10.863281 7.445312 L 7.722656 7.445312 Z M 7.722656 23.933594 " fill-opacity="1" fill-rule="nonzero"/><g clip-path="url(#97c70e7dc9)"><path fill="#4e96a8" d="M 23.191406 26.289062 L 6.800781 26.289062 C 6.015625 26.289062 5.378906 25.648438 5.378906 24.867188 L 5.378906 6.511719 C 5.378906 5.726562 6.015625 5.089844 6.800781 5.089844 L 11.265625 5.089844 C 11.484375 5.089844 11.660156 5.265625 11.660156 5.480469 L 11.660156 7.445312 L 18.726562 7.445312 L 18.726562 5.480469 C 18.726562 5.265625 18.902344 5.089844 19.117188 5.089844 L 23.191406 5.089844 C 23.976562 5.089844 24.613281 5.726562 24.613281 6.511719 L 24.613281 24.867188 C 24.613281 25.648438 23.976562 26.289062 23.191406 26.289062 Z M 6.800781 5.875 C 6.449219 5.875 6.164062 6.160156 6.164062 6.511719 L 6.164062 24.867188 C 6.164062 25.21875 6.449219 25.503906 6.800781 25.503906 L 23.191406 25.503906 C 23.542969 25.503906 23.828125 25.21875 23.828125 24.867188 L 23.828125 6.511719 C 23.828125 6.160156 23.542969 5.875 23.191406 5.875 L 19.511719 5.875 L 19.511719 7.835938 C 19.511719 8.054688 19.335938 8.230469 19.117188 8.230469 L 11.265625 8.230469 C 11.050781 8.230469 10.875 8.054688 10.875 7.835938 L 10.875 5.875 Z M 6.800781 5.875 " fill-opacity="1" fill-rule="nonzero"/></g><g clip-path="url(#dd95e042d3)"><path fill="#4e96a8" d="M 17.144531 5.875 L 13.21875 5.875 C 13 5.875 12.824219 5.699219 12.824219 5.480469 L 12.824219 3.714844 C 12.824219 3.175781 13.265625 2.734375 13.808594 2.734375 L 16.554688 2.734375 C 17.097656 2.734375 17.535156 3.175781 17.535156 3.714844 L 17.535156 5.480469 C 17.535156 5.699219 17.359375 5.875 17.144531 5.875 Z M 13.609375 5.089844 L 16.75 5.089844 L 16.75 3.714844 C 16.75 3.605469 16.664062 3.519531 16.554688 3.519531 L 13.808594 3.519531 C 13.699219 3.519531 13.609375 3.605469 13.609375 3.714844 Z M 13.609375 5.089844 " fill-opacity="1" fill-rule="nonzero"/></g><path fill="#4e96a8" d="M 19.117188 8.230469 L 11.265625 8.230469 C 11.050781 8.230469 10.875 8.054688 10.875 7.835938 L 10.875 4.695312 C 10.875 4.480469 11.050781 4.304688 11.265625 4.304688 L 13.21875 4.304688 C 13.433594 4.304688 13.609375 4.480469 13.609375 4.695312 L 13.609375 5.089844 L 16.75 5.089844 L 16.75 4.695312 C 16.75 4.480469 16.925781 4.304688 17.144531 4.304688 L 19.117188 4.304688 C 19.335938 4.304688 19.511719 4.480469 19.511719 4.695312 L 19.511719 7.835938 C 19.511719 8.054688 19.335938 8.230469 19.117188 8.230469 Z M 11.660156 7.445312 L 18.726562 7.445312 L 18.726562 5.089844 L 17.535156 5.089844 L 17.535156 5.480469 C 17.535156 5.699219 17.359375 5.875 17.144531 5.875 L 13.21875 5.875 C 13 5.875 12.824219 5.699219 12.824219 5.480469 L 12.824219 5.089844 L 11.660156 5.089844 Z M 11.660156 7.445312 " fill-opacity="1" fill-rule="nonzero"/><path fill="#4e96a8" d="M 10.078125 12.546875 C 9.976562 12.546875 9.875 12.511719 9.800781 12.433594 L 9.015625 11.648438 C 8.859375 11.496094 8.859375 11.246094 9.015625 11.09375 C 9.167969 10.941406 9.417969 10.941406 9.570312 11.09375 L 10.355469 11.878906 C 10.507812 12.03125 10.507812 12.28125 10.355469 12.433594 C 10.277344 12.511719 10.179688 12.546875 10.078125 12.546875 Z M 10.078125 12.546875 " fill-opacity="1" fill-rule="nonzero"/><path fill="#4e96a8" d="M 10.078125 12.546875 C 9.992188 12.546875 9.90625 12.519531 9.832031 12.460938 C 9.664062 12.328125 9.636719 12.078125 9.769531 11.910156 L 11.339844 9.949219 C 11.476562 9.777344 11.722656 9.75 11.894531 9.886719 C 12.0625 10.023438 12.089844 10.269531 11.953125 10.4375 L 10.382812 12.402344 C 10.304688 12.496094 10.191406 12.546875 10.078125 12.546875 Z M 10.078125 12.546875 " fill-opacity="1" fill-rule="nonzero"/><path fill="#4e96a8" d="M 17.535156 10.976562 L 14.003906 10.976562 C 13.785156 10.976562 13.609375 10.800781 13.609375 10.585938 C 13.609375 10.367188 13.785156 10.191406 14.003906 10.191406 L 17.535156 10.191406 C 17.753906 10.191406 17.929688 10.367188 17.929688 10.585938 C 17.929688 10.800781 17.753906 10.976562 17.535156 10.976562 Z M 17.535156 10.976562 " fill-opacity="1" fill-rule="nonzero"/><path fill="#4e96a8" d="M 20.675781 10.976562 L 19.105469 10.976562 C 18.890625 10.976562 18.714844 10.800781 18.714844 10.585938 C 18.714844 10.367188 18.890625 10.191406 19.105469 10.191406 L 20.675781 10.191406 C 20.894531 10.191406 21.070312 10.367188 21.070312 10.585938 C 21.070312 10.800781 20.894531 10.976562 20.675781 10.976562 Z M 20.675781 10.976562 " fill-opacity="1" fill-rule="nonzero"/><path fill="#4e96a8" d="M 20.675781 12.546875 L 17.144531 12.546875 C 16.925781 12.546875 16.75 12.371094 16.75 12.15625 C 16.75 11.9375 16.925781 11.761719 17.144531 11.761719 L 20.675781 11.761719 C 20.894531 11.761719 21.070312 11.9375 21.070312 12.15625 C 21.070312 12.371094 20.894531 12.546875 20.675781 12.546875 Z M 20.675781 12.546875 " fill-opacity="1" fill-rule="nonzero"/><path fill="#4e96a8" d="M 15.574219 12.546875 L 14.003906 12.546875 C 13.785156 12.546875 13.609375 12.371094 13.609375 12.15625 C 13.609375 11.9375 13.785156 11.761719 14.003906 11.761719 L 15.574219 11.761719 C 15.789062 11.761719 15.964844 11.9375 15.964844 12.15625 C 15.964844 12.371094 15.789062 12.546875 15.574219 12.546875 Z M 15.574219 12.546875 " fill-opacity="1" fill-rule="nonzero"/><path fill="#4e96a8" d="M 10.078125 17.257812 C 9.976562 17.257812 9.875 17.222656 9.800781 17.144531 L 9.015625 16.359375 C 8.859375 16.207031 8.859375 15.957031 9.015625 15.804688 C 9.167969 15.652344 9.417969 15.652344 9.570312 15.804688 L 10.355469 16.589844 C 10.507812 16.742188 10.507812 16.992188 10.355469 17.144531 C 10.277344 17.222656 10.179688 17.257812 10.078125 17.257812 Z M 10.078125 17.257812 " fill-opacity="1" fill-rule="nonzero"/><path fill="#4e96a8" d="M 10.078125 17.257812 C 9.992188 17.257812 9.90625 17.230469 9.832031 17.171875 C 9.664062 17.039062 9.636719 16.789062 9.769531 16.621094 L 11.339844 14.660156 C 11.476562 14.488281 11.722656 14.460938 11.894531 14.597656 C 12.0625 14.734375 12.089844 14.980469 11.953125 15.148438 L 10.382812 17.113281 C 10.304688 17.207031 10.191406 17.257812 10.078125 17.257812 Z M 10.078125 17.257812 " fill-opacity="1" fill-rule="nonzero"/><path fill="#4e96a8" d="M 17.535156 15.6875 L 14.003906 15.6875 C 13.785156 15.6875 13.609375 15.511719 13.609375 15.296875 C 13.609375 15.078125 13.785156 14.902344 14.003906 14.902344 L 17.535156 14.902344 C 17.753906 14.902344 17.929688 15.078125 17.929688 15.296875 C 17.929688 15.511719 17.753906 15.6875 17.535156 15.6875 Z M 17.535156 15.6875 " fill-opacity="1" fill-rule="nonzero"/><path fill="#4e96a8" d="M 20.675781 15.6875 L 19.105469 15.6875 C 18.890625 15.6875 18.714844 15.511719 18.714844 15.296875 C 18.714844 15.078125 18.890625 14.902344 19.105469 14.902344 L 20.675781 14.902344 C 20.894531 14.902344 21.070312 15.078125 21.070312 15.296875 C 21.070312 15.511719 20.894531 15.6875 20.675781 15.6875 Z M 20.675781 15.6875 " fill-opacity="1" fill-rule="nonzero"/><path fill="#4e96a8" d="M 20.675781 17.257812 L 17.144531 17.257812 C 16.925781 17.257812 16.75 17.082031 16.75 16.867188 C 16.75 16.648438 16.925781 16.472656 17.144531 16.472656 L 20.675781 16.472656 C 20.894531 16.472656 21.070312 16.648438 21.070312 16.867188 C 21.070312 17.082031 20.894531 17.257812 20.675781 17.257812 Z M 20.675781 17.257812 " fill-opacity="1" fill-rule="nonzero"/><path fill="#4e96a8" d="M 15.574219 17.257812 L 14.003906 17.257812 C 13.785156 17.257812 13.609375 17.082031 13.609375 16.867188 C 13.609375 16.648438 13.785156 16.472656 14.003906 16.472656 L 15.574219 16.472656 C 15.789062 16.472656 15.964844 16.648438 15.964844 16.867188 C 15.964844 17.082031 15.789062 17.257812 15.574219 17.257812 Z M 15.574219 17.257812 " fill-opacity="1" fill-rule="nonzero"/><path fill="#4e96a8" d="M 10.078125 21.96875 C 9.976562 21.96875 9.875 21.933594 9.800781 21.855469 L 9.015625 21.070312 C 8.859375 20.917969 8.859375 20.667969 9.015625 20.515625 C 9.167969 20.363281 9.417969 20.363281 9.570312 20.515625 L 10.355469 21.300781 C 10.507812 21.453125 10.507812 21.703125 10.355469 21.855469 C 10.277344 21.933594 10.179688 21.96875 10.078125 21.96875 Z M 10.078125 21.96875 " fill-opacity="1" fill-rule="nonzero"/><path fill="#4e96a8" d="M 10.078125 21.96875 C 9.992188 21.96875 9.90625 21.941406 9.832031 21.882812 C 9.664062 21.75 9.636719 21.5 9.769531 21.332031 L 11.339844 19.371094 C 11.476562 19.199219 11.722656 19.171875 11.894531 19.308594 C 12.0625 19.445312 12.089844 19.691406 11.953125 19.859375 L 10.382812 21.824219 C 10.304688 21.917969 10.191406 21.96875 10.078125 21.96875 Z M 10.078125 21.96875 " fill-opacity="1" fill-rule="nonzero"/><path fill="#4e96a8" d="M 17.535156 20.398438 L 14.003906 20.398438 C 13.785156 20.398438 13.609375 20.222656 13.609375 20.007812 C 13.609375 19.789062 13.785156 19.613281 14.003906 19.613281 L 17.535156 19.613281 C 17.753906 19.613281 17.929688 19.789062 17.929688 20.007812 C 17.929688 20.222656 17.753906 20.398438 17.535156 20.398438 Z M 17.535156 20.398438 " fill-opacity="1" fill-rule="nonzero"/><path fill="#4e96a8" d="M 20.675781 20.398438 L 19.105469 20.398438 C 18.890625 20.398438 18.714844 20.222656 18.714844 20.007812 C 18.714844 19.789062 18.890625 19.613281 19.105469 19.613281 L 20.675781 19.613281 C 20.894531 19.613281 21.070312 19.789062 21.070312 20.007812 C 21.070312 20.222656 20.894531 20.398438 20.675781 20.398438 Z M 20.675781 20.398438 " fill-opacity="1" fill-rule="nonzero"/><path fill="#4e96a8" d="M 20.675781 21.96875 L 17.144531 21.96875 C 16.925781 21.96875 16.75 21.792969 16.75 21.578125 C 16.75 21.359375 16.925781 21.183594 17.144531 21.183594 L 20.675781 21.183594 C 20.894531 21.183594 21.070312 21.359375 21.070312 21.578125 C 21.070312 21.792969 20.894531 21.96875 20.675781 21.96875 Z M 20.675781 21.96875 " fill-opacity="1" fill-rule="nonzero"/><path fill="#4e96a8" d="M 15.574219 21.96875 L 14.003906 21.96875 C 13.785156 21.96875 13.609375 21.792969 13.609375 21.578125 C 13.609375 21.359375 13.785156 21.183594 14.003906 21.183594 L 15.574219 21.183594 C 15.789062 21.183594 15.964844 21.359375 15.964844 21.578125 C 15.964844 21.792969 15.789062 21.96875 15.574219 21.96875 Z M 15.574219 21.96875 " fill-opacity="1" fill-rule="nonzero"/></svg>