<svg xmlns="http://www.w3.org/2000/svg" xmlns:xlink="http://www.w3.org/1999/xlink" width="40" zoomAndPan="magnify" viewBox="0 0 30 30.000001" height="40" preserveAspectRatio="xMidYMid meet" version="1.0"><defs><clipPath id="f5fe030164"><path d="M 3.664062 2.902344 L 24 2.902344 L 24 26.128906 L 3.664062 26.128906 Z M 3.664062 2.902344 " clip-rule="nonzero"/></clipPath><clipPath id="2e2a00facd"><path d="M 24 13 L 26.164062 13 L 26.164062 17 L 24 17 Z M 24 13 " clip-rule="nonzero"/></clipPath></defs><g clip-path="url(#f5fe030164)"><path fill="#ffc062" d="M 20.898438 2.984375 C 20.691406 3.046875 20.378906 3.367188 20.3125 3.59375 C 20.230469 3.867188 20.242188 3.972656 20.394531 4.390625 C 20.46875 4.59375 20.527344 4.765625 20.527344 4.773438 C 20.527344 4.78125 20.328125 4.6875 20.089844 4.566406 C 18.929688 3.988281 17.753906 3.628906 16.402344 3.453125 C 15.707031 3.363281 14.347656 3.363281 13.613281 3.453125 C 10.292969 3.867188 7.320312 5.742188 5.46875 8.582031 C 4.609375 9.902344 4.039062 11.429688 3.777344 13.101562 C 3.679688 13.757812 3.664062 15.578125 3.753906 16.195312 C 4.144531 18.78125 5.1875 20.902344 6.964844 22.695312 C 8.707031 24.460938 10.917969 25.582031 13.390625 25.957031 C 14.46875 26.121094 16.367188 26.082031 16.804688 25.890625 C 17.125 25.75 17.367188 25.3125 17.300781 24.976562 C 17.257812 24.734375 17.035156 24.425781 16.839844 24.332031 C 16.648438 24.234375 16.59375 24.230469 15.421875 24.285156 C 12.769531 24.402344 10.285156 23.460938 8.378906 21.621094 C 7.503906 20.773438 6.953125 20.019531 6.425781 18.953125 C 5.707031 17.511719 5.394531 16.039062 5.449219 14.394531 C 5.53125 11.925781 6.488281 9.707031 8.214844 7.96875 C 9.488281 6.691406 11.027344 5.820312 12.777344 5.394531 C 13.472656 5.226562 14.171875 5.148438 15.050781 5.148438 C 16.570312 5.148438 17.9375 5.457031 19.167969 6.074219 L 19.550781 6.265625 L 19.375 6.324219 C 19.28125 6.355469 19.113281 6.464844 19.003906 6.5625 C 18.378906 7.140625 18.785156 8.175781 19.636719 8.175781 C 19.9375 8.175781 22.5625 7.363281 22.765625 7.210938 C 22.996094 7.03125 23.113281 6.769531 23.113281 6.445312 C 23.113281 6.214844 23.046875 6 22.585938 4.789062 C 22.015625 3.292969 21.957031 3.1875 21.589844 3.019531 C 21.394531 2.929688 21.132812 2.917969 20.898438 2.984375 Z M 20.898438 2.984375 " fill-opacity="1" fill-rule="nonzero"/></g><path fill="#ffc062" d="M 23.410156 8.265625 C 23.097656 8.433594 22.882812 8.867188 22.945312 9.183594 C 22.964844 9.265625 23.097656 9.539062 23.253906 9.796875 C 23.402344 10.058594 23.609375 10.457031 23.71875 10.679688 C 23.921875 11.121094 24.070312 11.292969 24.332031 11.402344 C 24.554688 11.496094 24.757812 11.492188 24.980469 11.390625 C 25.332031 11.226562 25.5 10.960938 25.5 10.558594 C 25.5 10.363281 25.449219 10.226562 25.1875 9.695312 C 24.734375 8.777344 24.472656 8.394531 24.222656 8.277344 C 23.972656 8.148438 23.636719 8.148438 23.410156 8.265625 Z M 23.410156 8.265625 " fill-opacity="1" fill-rule="nonzero"/><path fill="#ffc062" d="M 13.867188 9.285156 C 13.65625 9.359375 13.441406 9.550781 13.363281 9.742188 C 13.3125 9.863281 13.296875 10.46875 13.296875 13.054688 C 13.296875 16.507812 13.289062 16.386719 13.5625 16.640625 C 13.644531 16.722656 14.488281 17.117188 15.902344 17.742188 C 17.820312 18.585938 18.140625 18.714844 18.339844 18.71875 C 19.121094 18.722656 19.503906 17.769531 18.933594 17.226562 C 18.832031 17.128906 18.226562 16.839844 16.9375 16.273438 L 15.082031 15.460938 L 15.0625 12.664062 C 15.039062 9.597656 15.050781 9.753906 14.757812 9.476562 C 14.5 9.234375 14.199219 9.164062 13.867188 9.285156 Z M 13.867188 9.285156 " fill-opacity="1" fill-rule="nonzero"/><g clip-path="url(#2e2a00facd)"><path fill="#ffc062" d="M 25.113281 13.1875 C 24.90625 13.28125 24.710938 13.476562 24.648438 13.648438 C 24.621094 13.710938 24.59375 14.273438 24.585938 14.894531 L 24.574219 16.03125 L 24.707031 16.222656 C 24.890625 16.480469 25.136719 16.601562 25.460938 16.601562 C 25.800781 16.597656 26.058594 16.433594 26.222656 16.105469 C 26.335938 15.886719 26.335938 15.863281 26.335938 14.820312 C 26.335938 13.785156 26.332031 13.753906 26.226562 13.566406 C 25.992188 13.15625 25.527344 12.996094 25.113281 13.1875 Z M 25.113281 13.1875 " fill-opacity="1" fill-rule="nonzero"/></g><path fill="#ffc062" d="M 24.1875 18.300781 C 23.992188 18.378906 23.824219 18.578125 23.636719 18.953125 C 23.539062 19.152344 23.3125 19.558594 23.132812 19.855469 C 22.832031 20.355469 22.808594 20.417969 22.808594 20.648438 C 22.816406 21.117188 23.136719 21.464844 23.601562 21.496094 C 24.027344 21.527344 24.230469 21.40625 24.539062 20.921875 C 24.679688 20.710938 24.933594 20.261719 25.105469 19.929688 C 25.402344 19.347656 25.417969 19.308594 25.398438 19.0625 C 25.363281 18.578125 25.015625 18.25 24.546875 18.257812 C 24.410156 18.257812 24.25 18.28125 24.1875 18.300781 Z M 24.1875 18.300781 " fill-opacity="1" fill-rule="nonzero"/><path fill="#ffc062" d="M 21.011719 22.320312 C 20.945312 22.34375 20.710938 22.476562 20.492188 22.625 C 20.273438 22.777344 19.90625 23.003906 19.667969 23.132812 C 19.164062 23.410156 19.101562 23.460938 18.988281 23.683594 C 18.839844 23.972656 18.902344 24.441406 19.117188 24.683594 C 19.257812 24.839844 19.519531 24.941406 19.777344 24.941406 C 20.078125 24.941406 20.429688 24.769531 21.300781 24.195312 C 21.90625 23.796875 22.023438 23.675781 22.109375 23.367188 C 22.277344 22.734375 21.644531 22.128906 21.011719 22.320312 Z M 21.011719 22.320312 " fill-opacity="1" fill-rule="nonzero"/></svg>