<svg xmlns="http://www.w3.org/2000/svg" xmlns:xlink="http://www.w3.org/1999/xlink" width="40" zoomAndPan="magnify" viewBox="0 0 30 30.000001" height="40" preserveAspectRatio="xMidYMid meet" version="1.0"><defs><clipPath id="590818132c"><path d="M 3.386719 3.484375 L 26 3.484375 L 26 25.257812 L 3.386719 25.257812 Z M 3.386719 3.484375 " clip-rule="nonzero"/></clipPath><clipPath id="7e63183278"><path d="M 8 4 L 26.613281 4 L 26.613281 21 L 8 21 Z M 8 4 " clip-rule="nonzero"/></clipPath></defs><g clip-path="url(#590818132c)"><path fill="#006934" d="M 14.402344 25.242188 C 8.328125 25.242188 3.386719 20.367188 3.386719 14.367188 C 3.386719 8.371094 8.328125 3.492188 14.402344 3.492188 C 16.390625 3.492188 18.339844 4.015625 20.03125 5.011719 C 20.386719 5.222656 20.503906 5.675781 20.292969 6.027344 C 20.078125 6.378906 19.613281 6.484375 19.265625 6.285156 C 17.804688 5.425781 16.125 4.96875 14.402344 4.96875 C 9.15625 4.96875 4.882812 9.183594 4.882812 14.367188 C 4.882812 19.546875 9.15625 23.761719 14.402344 23.761719 C 19.652344 23.761719 23.917969 19.546875 23.917969 14.367188 C 23.917969 13.960938 24.253906 13.628906 24.667969 13.628906 C 25.085938 13.628906 25.421875 13.960938 25.421875 14.367188 C 25.421875 20.367188 20.476562 25.242188 14.402344 25.242188 Z M 14.402344 25.242188 " fill-opacity="1" fill-rule="nonzero"/></g><g clip-path="url(#7e63183278)"><path fill="#00bb38" d="M 13.511719 20.4375 C 13.476562 20.4375 13.441406 20.4375 13.410156 20.433594 C 12.871094 20.40625 12.382812 20.128906 12.078125 19.691406 L 8.40625 14.417969 C 7.863281 13.632812 8.066406 12.566406 8.855469 12.027344 C 9.65625 11.488281 10.726562 11.691406 11.273438 12.472656 L 13.675781 15.929688 L 23.363281 5.015625 C 23.996094 4.300781 25.09375 4.230469 25.816406 4.855469 C 26.539062 5.480469 26.613281 6.566406 25.976562 7.277344 L 14.820312 19.851562 C 14.488281 20.226562 14.011719 20.4375 13.511719 20.4375 Z M 13.511719 20.4375 " fill-opacity="1" fill-rule="nonzero"/></g></svg>