<svg xmlns="http://www.w3.org/2000/svg" xmlns:xlink="http://www.w3.org/1999/xlink" width="40" zoomAndPan="magnify" viewBox="0 0 30 30.000001" height="40" preserveAspectRatio="xMidYMid meet" version="1.0"><defs><clipPath id="e0be771e89"><path d="M 0.484375 0 L 29.515625 0 L 29.515625 29.03125 L 0.484375 29.03125 Z M 0.484375 0 " clip-rule="nonzero"/></clipPath><clipPath id="83e4f48e34"><path d="M 3.386719 3.046875 L 26.613281 3.046875 L 26.613281 26 L 3.386719 26 Z M 3.386719 3.046875 " clip-rule="nonzero"/></clipPath><clipPath id="34645915c4"><path d="M 3.386719 3.046875 L 26.613281 3.046875 L 26.613281 26.273438 L 3.386719 26.273438 Z M 3.386719 3.046875 " clip-rule="nonzero"/></clipPath></defs><g clip-path="url(#e0be771e89)"><path fill="#ffffff" d="M 0.484375 0 L 29.515625 0 L 29.515625 29.03125 L 0.484375 29.03125 Z M 0.484375 0 " fill-opacity="1" fill-rule="nonzero"/><path fill="#ffffff" d="M 0.484375 0 L 29.515625 0 L 29.515625 29.03125 L 0.484375 29.03125 Z M 0.484375 0 " fill-opacity="1" fill-rule="nonzero"/></g><g clip-path="url(#83e4f48e34)"><path fill="#f87171" d="M 26.058594 14.660156 C 26.058594 20.769531 21.109375 25.722656 15 25.722656 C 8.890625 25.722656 3.941406 20.769531 3.941406 14.660156 C 3.941406 8.554688 8.890625 3.601562 15 3.601562 C 21.109375 3.601562 26.058594 8.554688 26.058594 14.660156 Z M 26.058594 14.660156 " fill-opacity="1" fill-rule="nonzero"/></g><path fill="#ffffff" d="M 18.707031 17.589844 C 18.925781 17.804688 18.925781 18.152344 18.707031 18.371094 C 18.601562 18.476562 18.460938 18.53125 18.316406 18.53125 C 18.175781 18.53125 18.035156 18.476562 17.925781 18.371094 L 15 15.441406 L 12.074219 18.371094 C 11.964844 18.476562 11.824219 18.53125 11.683594 18.53125 C 11.539062 18.53125 11.398438 18.476562 11.292969 18.371094 C 11.074219 18.152344 11.074219 17.804688 11.292969 17.589844 L 14.21875 14.660156 L 11.292969 11.734375 C 11.074219 11.519531 11.074219 11.167969 11.292969 10.953125 C 11.507812 10.738281 11.855469 10.738281 12.074219 10.953125 L 15 13.878906 L 17.925781 10.953125 C 18.144531 10.738281 18.492188 10.738281 18.707031 10.953125 C 18.925781 11.167969 18.925781 11.519531 18.707031 11.734375 L 15.78125 14.660156 Z M 18.707031 17.589844 " fill-opacity="1" fill-rule="nonzero"/><g clip-path="url(#34645915c4)"><path fill="#0f172a" d="M 15 3.046875 C 8.597656 3.046875 3.386719 8.257812 3.386719 14.660156 C 3.386719 21.066406 8.597656 26.273438 15 26.273438 C 21.402344 26.273438 26.613281 21.066406 26.613281 14.660156 C 26.613281 8.257812 21.402344 3.046875 15 3.046875 Z M 15 25.167969 C 9.207031 25.167969 4.492188 20.453125 4.492188 14.660156 C 4.492188 8.867188 9.207031 4.15625 15 4.15625 C 20.792969 4.15625 25.507812 8.867188 25.507812 14.660156 C 25.507812 20.453125 20.792969 25.167969 15 25.167969 Z M 15 25.167969 " fill-opacity="1" fill-rule="nonzero"/></g></svg>